<svg id="Layer_1" data-name="Layer 1" xmlns="http://www.w3.org/2000/svg" viewBox="0 0 180 100"><defs><style>.cls-1{fill:#f4f4f4;}</style></defs><path class="cls-1" d="M102.42,47.71c-6.56,0-7-3.86-5.75-8.24H102c-.52,2.42-.85,4.45,2.06,4.45a3.24,3.24,0,0,0,3.28-2.87c1-4.56-9.63-4.84-8-12.39.84-4,3.41-7.12,9.87-7.12,5.15,0,7.22,2.32,5.75,7.62H109.8c.4-1.9.5-3.83-1.64-3.83a3.17,3.17,0,0,0-3.31,2.7c-1,4.81,9.73,4.39,8,12.35C111.42,46.94,106.46,47.71,102.42,47.71Z"/><path class="cls-1" d="M139.42,47.78l5.38-25.33h13.82l-.82,3.9h-8.53l-1.33,6.24h7.86l-.8,3.89h-7.86l-1.57,7.4h8.81l-.83,3.9Z"/><path class="cls-1" d="M131.25,32.59l2.16-10.14h5.29l-5.38,25.33H128l2.4-11.3h-6.07L122,47.78h-5.3L122,22.45h5.3l-2.16,10.14Z"/><path class="cls-1" d="M85.71,29.64l1.08,18.14h5.58L90.88,22.45h-7L71.49,47.78h5.34Z"/><path class="cls-1" d="M172.57,22.45h-8.84q-2.7,12.66-5.38,25.33H167c9.05,0,10.35-8.91,11.18-12.81C179.83,27.08,179.52,22.45,172.57,22.45Zm.18,12.66c-1.35,6.35-2.49,8.77-5.72,8.77h-2.56q1.86-8.76,3.73-17.54h2.74C174.62,26.35,173.74,30.45,172.75,35.11Z"/><path class="cls-1" d="M67.22,47.78l5.39-25.33h-5.3L65.16,32.59H59.09l2.15-10.14H56L50.56,47.78h5.3l2.4-11.3h6.07l-2.4,11.3Z"/><path class="cls-1" d="M46.3,44.67l1.28-6H39.39L42.72,23H34.53L31.2,38.65H21.82L25.15,23H17L13.63,38.65H5.45l-1.29,6h8.19l-2,9.65H2.11l-1.28,6H9L5.31,77.81h8.18l3.72-17.47h9.38L22.88,77.81h8.19l3.71-17.47H43l1.28-6H36.06l2-9.65ZM27.87,54.32H18.48l2.06-9.65h9.38Z"/><path class="cls-1" d="M49.76,50.5,44.13,77.94h125.6l5.7-27.44ZM61.9,62.4a1.55,1.55,0,0,1,.08.23c-.29,2.82-.29,2.82-3,2.82H55.31c-.35,1.64-.67,3.19-1,4.88H61l-.58,3H50c1.26-6.1,2.51-12.14,3.78-18.22H64c-.2,1-.4,1.92-.61,3H56.83c-.3,1.44-.59,2.82-.91,4.33ZM76.61,73.3q1.4-6.85,2.82-13.66l-.19-.07c-.15.35-.32.68-.47,1-1.65,3.84-3.34,7.66-4.92,11.53-.41,1-.93,1.43-2,1.26a9.14,9.14,0,0,0-1.48,0v-14H70c-1,4.63-1.93,9.25-2.91,14H63.75c.41-2,.81-4,1.22-5.92.79-3.81,1.6-7.61,2.35-11.43.14-.65.34-.93,1-.9,1.49,0,3,0,4.56,0v12.8c.28-.54.44-.79.55-1.07,1.48-3.59,3-7.18,4.42-10.79a1.29,1.29,0,0,1,1.44-1c1.44.07,2.89,0,4.43,0C82.49,61.21,81.25,67.22,80,73.3Zm18-8.28c-.06.21-.55.4-.84.41H88.41c-.34,1.67-.66,3.22-1,4.88h6.75c-.21,1.06-.38,2-.57,3H83.08c1.25-6.06,2.5-12.08,3.77-18.18H97.06c-.21,1-.41,1.93-.62,3H89.92c-.3,1.45-.59,2.82-.9,4.31h6.11A22.39,22.39,0,0,1,94.59,65Zm16.14-6.62c-.11,2.68-1,4.9-3.85,5.88,1.74.81,2.06,1.33,1.86,3.24-.11,1.08-.39,2.14-.5,3.22-.08.85,0,1.7,0,2.6h-3.85a12.17,12.17,0,0,1,.15-2.35c.16-1.19.45-2.36.57-3.55s-.36-1.65-1.55-1.76h-.21c-1.92-.12-1.93-.12-2.32,1.73s-.8,3.91-1.21,6H96.11Q98,64.22,99.86,55.26c2.84,0,5.63-.13,8.4.05a2.74,2.74,0,0,1,2.48,3,.45.45,0,0,1,0,.11Zm14.51,2.09h-2.85a14.28,14.28,0,0,0-.08-1.46c-.25-1.6-1.62-2.16-2.85-1.08a3.93,3.93,0,0,0-1.28,1.85c-.7,2.85-1.31,5.71-1.82,8.6a2,2,0,0,0,1.2,2.53,2.47,2.47,0,0,0,2.7-1.42,25.83,25.83,0,0,0,1.16-3.3h-2.53c.19-.94.34-1.74.52-2.62h6c-.69,3.29-1.35,6.51-2,9.75h-2.67c.07-.49.12-.93.2-1.58a5.5,5.5,0,0,1-5.13,1.9,3.22,3.22,0,0,1-3.14-3.3h0a24.45,24.45,0,0,1,2.54-12c1.78-3.55,5.28-4.15,8.49-3.27a3.86,3.86,0,0,1,2.24,5,.69.69,0,0,1,0,.13.78.78,0,0,1-.67.29Zm12.4,4.44a1.11,1.11,0,0,1-.89.5h-5.32c-.34,1.61-.66,3.16-1,4.85h6.76c-.21,1.1-.39,2-.57,3H126.1c1.26-6.08,2.51-12.11,3.78-18.2h10.21l-.63,3H133c-.3,1.43-.59,2.83-.91,4.33h6.13a21.88,21.88,0,0,1-.58,2.52Zm13.86,8.4H147.3c-.61-4.16-1.22-8.27-1.82-12.38h-.17c-.66,3.2-1.32,6.39-2,9.59v.11c-.6,3.09-.6,3.09-3.93,2.64,1.25-6,2.51-12.09,3.77-18.16h4.25c.6,4.06,1.2,8.07,1.8,12.08h.18l2.53-12.06h3.37c-1.28,6.06-2.52,12.09-3.78,18.18Zm17.91-15.67c0,.2-.47.4-.73.42h-3.33c-1.06,5.11-2.1,10.15-3.15,15.23h-3.68c1-5.06,2.07-10.09,3.13-15.22h-4c.18-.92.3-1.74.53-2.53a.89.89,0,0,1,.68-.49h11.06c-.17.93-.3,1.78-.53,2.59Z"/><path class="cls-1" d="M106.21,58.21a11.78,11.78,0,0,0-3.07-.31c-.07,0-.19.21-.22.34-.33,1.56-.64,3.11-1,4.74,3,.36,4.41-.46,4.83-2.64C106.93,59.55,107.09,58.53,106.21,58.21Z"/></svg>