<svg width="507" height="386" viewBox="0 0 507 386" fill="none" xmlns="http://www.w3.org/2000/svg">
<path d="M304.667 272.058L347.158 385.035L346.222 385.387L303.698 272.325L303.666 272.24V0H304.667V272.058Z" fill="url(#paint0_linear_1869_4973)"/>
<path d="M347.69 271.943L454.604 379.856L453.893 380.56L346.834 272.501L346.69 272.355V0H347.69V271.943Z" fill="url(#paint1_linear_1869_4973)"/>
<path d="M396.717 271.839L507 326.731L506.554 327.626L395.994 272.596L395.716 272.459V0H396.717V271.839Z" fill="url(#paint2_linear_1869_4973)"/>
<path d="M210.338 271.739L210.305 271.824L168.794 379.356L166.846 384.535L209.337 271.558V0H210.338V271.739Z" fill="url(#paint3_linear_1869_4973)"/>
<path d="M159.31 271.855L159.165 272L52.1066 380.059L51.3953 379.356L158.309 271.442V0H159.31V271.855Z" fill="url(#paint4_linear_1869_4973)"/>
<path d="M257.363 374.205H256.363V0H257.363V374.205Z" fill="url(#paint5_linear_1869_4973)"/>
<path d="M111.284 271.958L111.006 272.096L0.445556 327.126L0 326.231L110.283 271.339V0H111.284V271.958Z" fill="url(#paint6_linear_1869_4973)"/>
<defs>
<linearGradient id="paint0_linear_1869_4973" x1="253.5" y1="1.04228e-05" x2="360.197" y2="418.729" gradientUnits="userSpaceOnUse">
<stop stop-color="#F4F2F2"/>
<stop offset="1" stop-color="#8E8D8D"/>
</linearGradient>
<linearGradient id="paint1_linear_1869_4973" x1="253.5" y1="1.04228e-05" x2="360.197" y2="418.729" gradientUnits="userSpaceOnUse">
<stop stop-color="#F4F2F2"/>
<stop offset="1" stop-color="#8E8D8D"/>
</linearGradient>
<linearGradient id="paint2_linear_1869_4973" x1="253.5" y1="1.04228e-05" x2="360.197" y2="418.729" gradientUnits="userSpaceOnUse">
<stop stop-color="#F4F2F2"/>
<stop offset="1" stop-color="#8E8D8D"/>
</linearGradient>
<linearGradient id="paint3_linear_1869_4973" x1="253.5" y1="1.04228e-05" x2="360.197" y2="418.729" gradientUnits="userSpaceOnUse">
<stop stop-color="#F4F2F2"/>
<stop offset="1" stop-color="#8E8D8D"/>
</linearGradient>
<linearGradient id="paint4_linear_1869_4973" x1="253.5" y1="1.04228e-05" x2="360.197" y2="418.729" gradientUnits="userSpaceOnUse">
<stop stop-color="#F4F2F2"/>
<stop offset="1" stop-color="#8E8D8D"/>
</linearGradient>
<linearGradient id="paint5_linear_1869_4973" x1="253.5" y1="1.04228e-05" x2="360.197" y2="418.729" gradientUnits="userSpaceOnUse">
<stop stop-color="#F4F2F2"/>
<stop offset="1" stop-color="#8E8D8D"/>
</linearGradient>
<linearGradient id="paint6_linear_1869_4973" x1="253.5" y1="1.04228e-05" x2="360.197" y2="418.729" gradientUnits="userSpaceOnUse">
<stop stop-color="#F4F2F2"/>
<stop offset="1" stop-color="#8E8D8D"/>
</linearGradient>
</defs>
</svg>
