<svg width="288" height="312" viewBox="0 0 288 312" fill="none" xmlns="http://www.w3.org/2000/svg">
<path d="M-14.1557 -17C-38.9896 8.12618 -87.0018 72.3044 -80.3794 128.008C-72.1015 197.637 48.2473 166.975 105.556 246.825C151.403 310.705 113.197 367.558 88.3636 388" stroke="#202020"/>
<path d="M78.422 -17C58.0254 10.4098 22.4589 76.1933 43.3654 120.049C69.4985 174.868 274.739 174.868 199.527 361" stroke="#202020"/>
<path d="M269.742 -55C255.905 -33.9582 233.087 14.5017 252.5 40.007C276.766 71.8885 351.481 41.9199 370 128" stroke="#202020"/>
<path d="M217.781 -47C193.51 -11.3524 172.322 56.7987 212.46 95.5903C254.614 136.33 360 107.685 360 242" stroke="#202020"/>
<path d="M170.616 -33C144.351 -0.902187 89.0035 79.4911 152.038 128.977C206.489 171.724 262.862 167.877 295.533 208.69C328.203 249.503 291.048 339.42 248.769 356" stroke="#202020"/>
</svg>
