<svg width="704" height="188" viewBox="0 0 704 188" fill="none" xmlns="http://www.w3.org/2000/svg">
<path d="M97.7296 -71C58.4491 -31.2944 -17.4932 70.123 -7.0184 158.148C6.0751 268.18 196.435 219.726 287.082 345.908C359.6 446.855 299.168 536.697 259.888 569" stroke="#202020"/>
<path d="M243.488 -71C211.241 -27.6374 155.01 76.4327 188.064 145.813C229.38 232.538 553.867 232.538 434.956 527" stroke="#202020"/>
<path d="M545.993 -131C524.187 -97.77 488.224 -21.2404 518.819 19.0383C557.063 69.3868 674.814 22.0592 704 158" stroke="#202020"/>
<path d="M463.959 -119C425.554 -62.5066 392.027 45.4976 455.539 106.974C522.243 171.537 689 126.141 689 339" stroke="#202020"/>
<path d="M389.898 -97C348.585 -46.2541 261.524 80.8458 360.677 159.082C446.326 226.664 534.999 220.582 586.389 285.107C637.779 349.631 579.336 491.787 512.831 518" stroke="#202020"/>
</svg>
