<svg width="1224" height="678" viewBox="0 0 1224 678" fill="none" xmlns="http://www.w3.org/2000/svg">
<path d="M520.978 109.653L727.947 -7.65669L934.915 109.653L934.928 109.661L1140.01 230.246L1141.9 468.14V468.156L1140.01 706.05L934.928 826.635L934.915 826.643L727.947 943.953L520.978 826.643L520.965 826.635L315.888 706.05L313.996 468.156V468.14L315.888 230.246L520.965 109.661L520.978 109.653Z" fill="#161616" stroke="#202020" stroke-width="2"/>
<path d="M593.514 136.651L823.792 76.9059L993.346 243.785L993.357 243.797L1160.24 413.351L1100.49 643.628L1100.49 643.644L1037.09 872.943L807.79 936.341L807.775 936.345L577.497 996.09L407.943 829.211L407.932 829.199L241.052 659.645L300.797 429.367L300.801 429.352L364.199 200.053L593.498 136.655L593.514 136.651Z" fill="#161616" stroke="#202020" stroke-width="2"/>
<path d="M656.591 181.502L894.485 183.393L1015.07 388.47L1015.08 388.484L1132.39 595.452L1015.08 802.421L1015.07 802.434L894.485 1007.51L656.591 1009.4L656.575 1009.4L418.68 1007.51L298.095 802.434L298.087 802.42L180.778 595.452L298.087 388.484L298.095 388.47L418.68 183.393L656.575 181.502L656.591 181.502Z" fill="#161616" stroke="#202020" stroke-width="2"/>
<path d="M705.909 241.15L935.208 304.549L998.606 533.848L998.61 533.863L1058.36 764.141L891.476 933.695L891.464 933.706L721.91 1100.59L491.633 1040.84L491.617 1040.84L262.318 977.438L198.92 748.139L198.916 748.124L139.171 517.846L306.051 348.292L306.062 348.281L475.616 181.401L705.894 241.146L705.909 241.15Z" fill="#161616" stroke="#202020" stroke-width="2"/>
<path d="M738.109 311.531L943.186 432.116L945.077 670.011L945.077 670.027L943.186 907.921L738.109 1028.51L738.095 1028.51L531.127 1145.82L324.159 1028.51L324.145 1028.51L119.068 907.921L117.177 670.027L117.177 670.011L119.068 432.116L324.145 311.531L324.159 311.523L531.127 194.214L738.095 311.523L738.109 311.531Z" fill="#161616" stroke="#202020" stroke-width="2"/>
<path d="M750.996 387.848L917.875 557.402L858.131 787.679L858.127 787.695L794.728 1016.99L565.429 1080.39L565.414 1080.4L335.136 1140.14L165.582 973.262L165.571 973.25L-1.30853 803.696L58.4363 573.418L58.4404 573.403L121.839 344.104L351.138 280.706L351.153 280.702L581.431 220.957L750.985 387.836L750.996 387.848Z" fill="#161616" stroke="#202020" stroke-width="2"/>
<path d="M743.691 464.9L861.001 671.868L743.691 878.836L743.683 878.85L623.098 1083.93L385.204 1085.82H385.188L147.294 1083.93L26.7088 878.85L26.7008 878.836L-90.6085 671.868L26.7008 464.9L26.7088 464.886L147.294 259.809L385.188 257.918H385.204L623.098 259.809L743.683 464.886L743.691 464.9Z" fill="#161616" stroke="#202020" stroke-width="2"/>
<path d="M716.694 537.435L776.439 767.713L609.56 937.267L609.548 937.278L439.994 1104.16L209.717 1044.41L209.701 1044.41L-19.5976 981.01L-82.9959 751.711L-83.0001 751.696L-142.745 521.418L24.1346 351.864L24.1458 351.853L193.7 184.974L423.978 244.718L423.993 244.723L653.292 308.121L716.69 537.42L716.694 537.435Z" fill="#161616" stroke="#202020" stroke-width="2"/>
<path d="M671.843 600.512L669.951 838.406L464.874 958.991L464.861 958.999L257.892 1076.31L50.9242 958.999L50.9105 958.991L-154.166 838.406L-156.058 600.512L-156.058 600.496L-154.166 362.601L50.9105 242.016L50.9243 242.008L257.892 124.699L464.861 242.008L464.874 242.016L669.951 362.601L671.843 600.496L671.843 600.512Z" fill="#161616" stroke="#202020" stroke-width="2"/>
<path d="M612.194 649.829L548.795 879.128L319.496 942.527L319.481 942.531L89.2032 1002.28L-80.3508 835.396L-80.362 835.385L-247.241 665.831L-187.497 435.553L-187.493 435.538L-124.094 206.239L105.205 142.841L105.22 142.836L335.498 83.0915L505.052 249.971L505.063 249.982L671.943 419.536L612.198 649.814L612.194 649.829Z" fill="#161616" stroke="#202020" stroke-width="2"/>
<path d="M541.813 682.029L421.228 887.106L183.334 888.998L183.318 888.998L-54.5763 887.106L-175.161 682.029L-175.169 682.016L-292.479 475.048L-175.169 268.079L-175.161 268.065L-54.5762 62.9886L183.318 61.0973L183.334 61.0974L421.228 62.9885L541.813 268.066L541.821 268.079L659.131 475.047L541.821 682.016L541.813 682.029Z" fill="#161616" stroke="#202020" stroke-width="2"/>
<path d="M465.497 694.916L295.943 861.796L65.6655 802.051L65.6501 802.047L-163.649 738.648L-227.047 509.35L-227.051 509.334L-286.796 279.056L-119.917 109.502L-119.905 109.491L49.6486 -57.3883L279.926 2.3565L279.942 2.36066L509.241 65.759L572.639 295.058L572.643 295.073L632.388 525.351L465.508 694.905L465.497 694.916Z" fill="#161616" stroke="#202020" stroke-width="2"/>
<path d="M388.445 687.612L181.477 804.921L-25.4908 687.612L-25.5046 687.604L-230.582 567.019L-232.473 329.125V329.109L-230.582 91.2144L-25.5046 -29.3706L-25.4908 -29.3786L181.477 -146.688L388.445 -29.3786L388.459 -29.3706L593.536 91.2144L595.427 329.109V329.125L593.536 567.019L388.459 687.604L388.445 687.612Z" fill="#161616" stroke="#202020" stroke-width="2"/>
<path d="M315.91 660.614L85.6324 720.359L-83.9216 553.479L-83.9329 553.468L-250.812 383.914L-191.068 153.636L-191.063 153.621L-127.665 -75.6778L101.634 -139.076L101.649 -139.08L331.927 -198.825L501.481 -31.9456L501.492 -31.9344L668.372 137.62L608.627 367.897L608.623 367.913L545.224 597.212L315.926 660.61L315.91 660.614Z" fill="#161616" stroke="#202020" stroke-width="2"/>
<path d="M252.833 615.763L14.9389 613.872L-105.646 408.795L-105.654 408.781L-222.963 201.813L-105.654 -5.15537L-105.646 -5.16911L14.9389 -210.246L252.833 -212.137L252.849 -212.137L490.744 -210.246L611.329 -5.16912L611.337 -5.15531L728.646 201.813L611.337 408.781L611.329 408.795L490.744 613.872L252.849 615.763L252.833 615.763Z" fill="#161616" stroke="#202020" stroke-width="2"/>
<path d="M203.515 556.114L-25.7841 492.716L-89.1824 263.417L-89.1865 263.402L-148.931 33.1238L17.9481 -136.43L17.9593 -136.441L187.513 -303.321L417.791 -243.576L417.807 -243.572L647.105 -180.174L710.504 49.1253L710.508 49.1406L770.253 279.418L603.373 448.972L603.362 448.984L433.808 615.863L203.53 556.118L203.515 556.114Z" fill="#161616" stroke="#202020" stroke-width="2"/>
<path d="M171.315 485.734L-33.7625 365.149L-35.6536 127.254L-35.6536 127.238L-33.7624 -110.656L171.315 -231.241L171.328 -231.249L378.296 -348.558L585.265 -231.249L585.278 -231.241L790.355 -110.656L792.247 127.238L792.247 127.254L790.355 365.149L585.278 485.734L585.265 485.742L378.296 603.051L171.328 485.742L171.315 485.734Z" fill="#161616" stroke="#202020" stroke-width="2"/>
<path d="M158.428 409.417L-8.45195 239.863L51.2929 9.5852L51.297 9.56982L114.695 -219.729L343.994 -283.127L344.01 -283.132L574.287 -342.876L743.841 -175.997L743.853 -175.986L910.732 -6.43164L850.987 223.846L850.983 223.862L787.585 453.16L558.286 516.559L558.271 516.563L327.993 576.308L158.439 409.428L158.428 409.417Z" fill="#161616" stroke="#202020" stroke-width="2"/>
<path d="M165.732 332.366L48.4228 125.397L165.732 -81.5707L165.74 -81.5845L286.325 -286.661L524.219 -288.553H524.235L762.13 -286.661L882.715 -81.5845L882.723 -81.5707L1000.03 125.397L882.723 332.366L882.715 332.379L762.13 537.456L524.235 539.348H524.219L286.325 537.456L165.74 332.379L165.732 332.366Z" fill="#161616" stroke="#202020" stroke-width="2"/>
<path d="M192.73 259.831L132.985 29.5527L299.864 -140.001L299.875 -140.013L469.429 -306.892L699.707 -247.147L699.723 -247.143L929.021 -183.745L992.42 45.5542L992.424 45.5696L1052.17 275.847L885.289 445.401L885.278 445.413L715.724 612.292L485.446 552.547L485.431 552.543L256.132 489.145L192.734 259.846L192.73 259.831Z" fill="#161616" stroke="#202020" stroke-width="2"/>
<path d="M237.581 196.755L239.473 -41.1398L444.549 -161.725L444.563 -161.733L651.531 -279.042L858.5 -161.733L858.513 -161.725L1063.59 -41.1398L1065.48 196.755L1065.48 196.771L1063.59 434.665L858.513 555.25L858.5 555.258L651.531 672.567L444.563 555.258L444.549 555.25L239.473 434.665L237.581 196.77L237.581 196.755Z" fill="#161616" stroke="#202020" stroke-width="2"/>
<path d="M297.23 147.436L360.628 -81.8632L589.927 -145.262L589.942 -145.266L820.22 -205.01L989.774 -38.131L989.786 -38.1198L1156.67 131.434L1096.92 361.712L1096.92 361.727L1033.52 591.026L804.219 654.425L804.203 654.429L573.926 714.174L404.372 547.294L404.36 547.283L237.481 377.729L297.226 147.451L297.23 147.436Z" fill="#161616" stroke="#202020" stroke-width="2"/>
<path d="M367.61 115.235L488.195 -89.8417L726.09 -91.7329L726.106 -91.7329L964 -89.8417L1084.59 115.235L1084.59 115.249L1201.9 322.217L1084.59 529.185L1084.59 529.199L964 734.276L726.106 736.167L726.09 736.167L488.195 734.276L367.61 529.199L367.603 529.185L250.293 322.217L367.603 115.249L367.61 115.235Z" fill="#161616" stroke="#202020" stroke-width="2"/>
<path d="M552.823 -9.47363L745.061 -9.86474L937.282 -7.19973L1033.74 159.088L1127.54 326.888L1031.76 493.567L933.343 658.703L741.105 659.094L548.885 656.429L452.427 490.141L358.624 322.341L454.405 155.662L552.823 -9.47363Z" fill="#161616"/>
<path d="M937.282 -7.19972L745.062 -9.86475L552.823 -9.47363L454.405 155.662L358.624 322.341M937.282 -7.19972L1033.74 159.088L1127.54 326.888L1031.76 493.567L933.343 658.703L741.105 659.094L548.885 656.429L452.427 490.141L358.624 322.341M937.282 -7.19972L743.083 324.614L358.624 322.341" stroke="#202020" stroke-width="2"/>
<path d="M593.714 62.3305L744.636 62.0234L895.543 64.1156L971.27 194.664L1044.91 326.4L969.717 457.255L892.451 586.899L741.53 587.206L590.622 585.113L514.896 454.565L441.254 322.829L516.449 191.974L593.714 62.3305Z" fill="#161616"/>
<path d="M1044.91 326.4L971.27 194.664L895.543 64.1157L744.636 62.0234L593.714 62.3305L516.449 191.974L441.254 322.829L514.896 454.565L590.622 585.113M1044.91 326.4L969.717 457.255L892.451 586.899L741.53 587.206L590.622 585.113M1044.91 326.4L743.083 324.615L590.622 585.113" stroke="#202020" stroke-width="2"/>
<path d="M618.704 106.211L744.376 105.955L870.037 107.697L933.094 216.405L994.416 326.101L931.801 435.064L867.462 543.018L741.79 543.274L616.129 541.532L553.072 432.824L491.75 323.128L554.365 214.165L618.704 106.211Z" fill="#161616"/>
<path d="M870.037 107.697L744.376 105.955L618.704 106.211L554.365 214.165L491.75 323.128M870.037 107.697L933.094 216.405L994.416 326.101L931.801 435.064L867.462 543.018L741.79 543.274L616.129 541.532L553.072 432.824L491.75 323.128M870.037 107.697L743.083 324.615L491.75 323.128" stroke="#202020" stroke-width="2"/>
<path d="M634.038 133.137L744.217 132.913L854.385 134.441L909.668 229.746L963.429 325.918L908.534 421.447L852.127 516.092L741.949 516.316L631.781 514.789L576.498 419.483L522.736 323.311L577.631 227.782L634.038 133.137Z" fill="#161616"/>
<path d="M963.429 325.918L909.668 229.746L854.385 134.441L744.217 132.913L634.038 133.137L577.631 227.782L522.736 323.311L576.498 419.483L631.781 514.789M963.429 325.918L908.534 421.447L852.127 516.092L741.949 516.316L631.781 514.789M963.429 325.918L743.083 324.615L631.781 514.789" stroke="#202020" stroke-width="2"/>
<path d="M646.533 155.077L744.087 154.879L841.632 156.231L890.581 240.616L938.182 325.768L889.577 410.352L839.633 494.152L742.079 494.35L644.535 492.998L595.586 408.613L547.985 323.461L596.59 238.877L646.533 155.077Z" fill="#161616"/>
<path d="M841.632 156.231L744.087 154.879L646.533 155.077L596.59 238.877L547.985 323.461M841.632 156.231L890.581 240.616L938.182 325.768L889.577 410.352L839.633 494.152L742.079 494.35L644.535 492.998L595.586 408.613L547.985 323.461M841.632 156.231L743.083 324.614L547.985 323.461" stroke="#202020" stroke-width="2"/>
<path d="M657.324 174.026L743.975 173.849L830.617 175.051L874.095 250.004L916.376 325.64L873.204 400.769L828.842 475.204L742.191 475.38L655.549 474.179L612.071 399.225L569.79 323.59L612.962 248.46L657.324 174.026Z" fill="#161616"/>
<path d="M916.376 325.64L874.095 250.004L830.617 175.051L743.975 173.849L657.324 174.026L612.962 248.46L569.79 323.59L612.071 399.225L655.549 474.179M916.376 325.64L873.204 400.769L828.842 475.204L742.191 475.38L655.549 474.179M916.376 325.64L743.083 324.615L655.549 474.179" stroke="#202020" stroke-width="2"/>
<path d="M669.818 195.966L743.845 195.815L817.864 196.841L855.007 260.874L891.128 325.49L854.245 389.674L816.347 453.263L742.321 453.414L668.302 452.388L631.158 388.354L595.037 323.739L631.92 259.555L669.818 195.966Z" fill="#161616"/>
<path d="M817.864 196.841L743.845 195.815L669.818 195.966L631.92 259.555L595.037 323.739M817.864 196.841L855.007 260.874L891.128 325.49L854.245 389.674L816.347 453.263L742.321 453.414L668.302 452.388L631.158 388.354L595.037 323.739M817.864 196.841L743.083 324.614L595.037 323.739" stroke="#202020" stroke-width="2"/>
<path d="M681.177 215.911L743.726 215.784L806.27 216.651L837.655 270.757L868.175 325.354L837.011 379.587L804.988 433.318L742.439 433.445L679.896 432.578L648.511 378.472L617.99 323.875L649.155 269.642L681.177 215.911Z" fill="#161616"/>
<path d="M868.175 325.354L837.655 270.757L806.27 216.651L743.726 215.784L681.177 215.911L649.155 269.642L617.99 323.875L648.511 378.472L679.896 432.578M868.175 325.354L837.011 379.587L804.988 433.318L742.439 433.445L679.896 432.578M868.175 325.354L743.083 324.615L679.896 432.578" stroke="#202020" stroke-width="2"/>
<path d="M694.24 238.849L743.591 238.748L792.937 239.432L817.699 282.121L841.78 325.198L817.191 367.988L791.926 410.381L742.575 410.481L693.229 409.797L668.466 367.108L644.386 324.031L668.974 281.242L694.24 238.849Z" fill="#161616"/>
<path d="M792.937 239.432L743.591 238.748L694.24 238.849L668.974 281.242L644.386 324.031M792.937 239.432L817.699 282.121L841.78 325.198L817.191 367.988L791.926 410.381L742.575 410.481L693.229 409.797L668.466 367.108L644.386 324.031M792.937 239.432L743.083 324.615L644.386 324.031" stroke="#202020" stroke-width="2"/>
<path d="M705.599 258.794L743.473 258.717L781.343 259.242L800.347 292.003L818.828 325.062L799.957 357.901L780.567 390.435L742.694 390.512L704.823 389.987L685.82 357.226L667.339 324.166L686.209 291.328L705.599 258.794Z" fill="#161616"/>
<path d="M818.828 325.062L800.347 292.003L781.343 259.242L743.473 258.717L705.599 258.794L686.209 291.328L667.339 324.166L685.82 357.226L704.823 389.987M818.828 325.062L799.957 357.901L780.567 390.435L742.694 390.512L704.823 389.987M818.828 325.062L743.083 324.614L704.823 389.987" stroke="#202020" stroke-width="2"/>
<path d="M718.094 280.734L743.343 280.683L768.59 281.033L781.259 302.874L793.579 324.913L780.999 346.805L768.073 368.495L742.823 368.546L717.576 368.196L704.907 346.355L692.587 324.316L705.167 302.424L718.094 280.734Z" fill="#161616"/>
<path d="M768.59 281.033L743.343 280.683L718.094 280.734L705.167 302.424L692.587 324.316M768.59 281.033L781.259 302.874L793.579 324.913L780.999 346.805L768.073 368.495L742.823 368.546L717.576 368.196L704.907 346.355L692.587 324.316M768.59 281.033L743.083 324.615L692.587 324.316" stroke="#202020" stroke-width="2"/>
</svg>
