<svg width="288" height="312" viewBox="0 0 288 312" fill="none" xmlns="http://www.w3.org/2000/svg">
<rect x="-26.2929" y="156.397" width="79" height="79" transform="rotate(-45 -26.2929 156.397)" stroke="#202020"/>
<rect x="215.707" y="15.5686" width="79" height="79" transform="rotate(-45 215.707 15.5686)" stroke="#202020"/>
<rect x="203.707" y="317.627" width="39" height="39" transform="rotate(-45 203.707 317.627)" stroke="#202020"/>
<rect x="103.707" y="65.2843" width="39" height="39" transform="rotate(-45 103.707 65.2843)" stroke="#202020"/>
<rect x="86.7071" y="269.627" width="39" height="39" transform="rotate(-45 86.7071 269.627)" stroke="#202020"/>
<rect x="123.707" y="184.284" width="39" height="39" transform="rotate(-45 123.707 184.284)" stroke="#202020"/>
<rect x="248.707" y="212.971" width="23" height="23" transform="rotate(-45 248.707 212.971)" stroke="#202020"/>
<rect x="186.707" y="116.971" width="23" height="23" transform="rotate(-45 186.707 116.971)" stroke="#202020"/>
<rect x="6.70711" y="22.9706" width="23" height="23" transform="rotate(-45 6.70711 22.9706)" stroke="#202020"/>
</svg>
