<svg width="288" height="296" viewBox="0 0 288 296" fill="none" xmlns="http://www.w3.org/2000/svg">
<path d="M253.534 34.6161L253.614 35.2763L254.226 35.0158L296.377 17.0697L259.76 44.6004L259.228 45L259.76 45.3996L296.377 72.9303L254.226 54.9842L253.614 54.7237L253.534 55.3839L248 100.861L242.466 55.3839L242.386 54.7237L241.774 54.9842L199.623 72.9303L236.24 45.3996L236.772 45L236.24 44.6004L199.623 17.0697L241.774 35.0158L242.386 35.2763L242.466 34.6161L248 -10.8606L253.534 34.6161Z" stroke="#202020"/>
<path d="M36.5337 225.616L36.614 226.276L37.2259 226.016L79.3767 208.07L42.7595 235.6L42.228 236L42.7595 236.4L79.3767 263.93L37.2259 245.984L36.614 245.724L36.5337 246.384L31 291.861L25.4663 246.384L25.386 245.724L24.7741 245.984L-17.3767 263.93L19.2405 236.4L19.772 236L19.2405 235.6L-17.3767 208.07L24.7741 226.016L25.386 226.276L25.4663 225.616L31 180.139L36.5337 225.616Z" stroke="#202020"/>
<path d="M105.514 152.579L105.594 153.239L106.206 152.979L117.736 148.07L107.72 155.6L107.188 156L107.72 156.4L117.736 163.93L106.206 159.021L105.594 158.761L105.514 159.421L104 171.861L102.486 159.421L102.406 158.761L101.794 159.021L90.2643 163.93L100.28 156.4L100.812 156L100.28 155.6L90.2643 148.07L101.794 152.979L102.406 153.239L102.486 152.579L104 140.139L105.514 152.579Z" stroke="#202020"/>
<path d="M145.514 68.579L145.594 69.2391L146.206 68.9786L157.736 64.0697L147.72 71.6004L147.188 72L147.72 72.3996L157.736 79.9303L146.206 75.0214L145.594 74.7609L145.514 75.421L144 87.8606L142.486 75.421L142.406 74.7609L141.794 75.0214L130.264 79.9303L140.28 72.3996L140.812 72L140.28 71.6004L130.264 64.0697L141.794 68.9786L142.406 69.2391L142.486 68.579L144 56.1394L145.514 68.579Z" stroke="#202020"/>
<path d="M196.514 172.579L196.594 173.239L197.206 172.979L208.736 168.07L198.72 175.6L198.188 176L198.72 176.4L208.736 183.93L197.206 179.021L196.594 178.761L196.514 179.421L195 191.861L193.486 179.421L193.406 178.761L192.794 179.021L181.264 183.93L191.28 176.4L191.812 176L191.28 175.6L181.264 168.07L192.794 172.979L193.406 173.239L193.486 172.579L195 160.139L196.514 172.579Z" stroke="#202020"/>
<path d="M125.514 268.579L125.594 269.239L126.206 268.979L137.736 264.07L127.72 271.6L127.188 272L127.72 272.4L137.736 279.93L126.206 275.021L125.594 274.761L125.514 275.421L124 287.861L122.486 275.421L122.406 274.761L121.794 275.021L110.264 279.93L120.28 272.4L120.812 272L120.28 271.6L110.264 264.07L121.794 268.979L122.406 269.239L122.486 268.579L124 256.139L125.514 268.579Z" stroke="#202020"/>
<path d="M231.524 239.098L231.604 239.758L232.216 239.497L259.056 228.07L235.74 245.6L235.208 246L235.74 246.4L259.056 263.93L232.216 252.503L231.604 252.242L231.524 252.902L228 281.861L224.476 252.902L224.396 252.242L223.784 252.503L196.944 263.93L220.26 246.4L220.792 246L220.26 245.6L196.944 228.07L223.784 239.497L224.396 239.758L224.476 239.098L228 210.139L231.524 239.098Z" stroke="#202020"/>
<path d="M46.5237 43.0975L46.604 43.7577L47.2159 43.4972L74.0562 32.0697L50.7395 49.6004L50.208 50L50.7395 50.3996L74.0562 67.9303L47.2159 56.5028L46.604 56.2423L46.5237 56.9025L43 85.8606L39.4763 56.9025L39.396 56.2423L38.7841 56.5028L11.9438 67.9303L35.2605 50.3996L35.792 50L35.2605 49.6004L11.9438 32.0697L38.7841 43.4972L39.396 43.7577L39.4763 43.0975L43 14.1394L46.5237 43.0975Z" stroke="#202020"/>
</svg>
