<svg width="1772" height="1772" viewBox="0 0 1772 1772" fill="none" xmlns="http://www.w3.org/2000/svg">
<g clip-path="url(#clip0_259_1059)">
<path d="M1533.93 1292.85L1557.55 1309.61L1578.99 1397.97L1581.24 1399.56L1614.76 1352.33L1631.35 1364.1L1584.06 1430.74L1560.44 1413.98L1539 1325.62L1536.75 1324.03L1502.03 1372.95L1485.44 1361.18L1533.93 1292.85Z" fill="#121212"/>
<path fill-rule="evenodd" clip-rule="evenodd" d="M1533.59 1290.85L1558.82 1308.75L1580.26 1397.11L1580.9 1397.56L1614.42 1350.32L1633.35 1363.76L1584.4 1432.74L1559.17 1414.84L1537.73 1326.48L1537.09 1326.03L1502.37 1374.96L1483.44 1361.52L1533.59 1290.85ZM1536.75 1324.03L1539 1325.62L1560.44 1413.98L1584.06 1430.74L1631.35 1364.1L1614.76 1352.33L1581.24 1399.56L1578.99 1397.97L1557.55 1309.61L1533.93 1292.85L1485.44 1361.18L1502.03 1372.95L1536.75 1324.03Z" fill="#5A5A5A"/>
<path d="M1439.16 1409.1C1445.02 1402.93 1451.53 1398.57 1458.7 1396.02C1465.86 1393.48 1473.17 1393.04 1480.61 1394.72C1488.05 1396.39 1495.11 1400.39 1501.78 1406.72L1503.78 1408.62C1510.45 1414.95 1514.82 1421.78 1516.88 1429.13C1518.94 1436.47 1518.89 1443.79 1516.73 1451.08C1514.56 1458.37 1510.55 1465.1 1504.7 1471.27C1498.84 1477.44 1492.33 1481.8 1485.16 1484.35C1478 1486.89 1470.69 1487.33 1463.25 1485.66C1455.81 1483.98 1448.75 1479.98 1442.08 1473.65L1440.08 1471.75C1433.41 1465.43 1429.04 1458.59 1426.98 1451.25C1424.92 1443.9 1424.97 1436.58 1427.13 1429.29C1429.3 1422 1433.31 1415.27 1439.16 1409.1ZM1453.17 1422.39C1448.58 1427.22 1446.33 1432.69 1446.41 1438.78C1446.57 1444.96 1449.57 1450.81 1455.4 1456.35L1456.66 1457.54C1462.49 1463.08 1468.46 1465.72 1474.55 1465.48C1480.64 1465.4 1486.02 1462.9 1490.69 1457.98C1495.28 1453.15 1497.49 1447.64 1497.33 1441.47C1497.25 1435.37 1494.29 1429.56 1488.45 1424.02L1487.2 1422.83C1481.37 1417.3 1475.36 1414.61 1469.19 1414.77C1463.1 1415.01 1457.76 1417.55 1453.17 1422.39Z" fill="#121212"/>
<path fill-rule="evenodd" clip-rule="evenodd" d="M1474.51 1464.05L1474.53 1464.05C1480.19 1463.97 1485.21 1461.67 1489.65 1457C1493.99 1452.41 1496.04 1447.27 1495.89 1441.51L1495.89 1441.49L1495.89 1441.49C1495.82 1435.89 1493.11 1430.42 1487.46 1425.06L1486.21 1423.88C1480.57 1418.52 1474.92 1416.06 1469.23 1416.21C1463.56 1416.44 1458.56 1418.79 1454.21 1423.38C1449.86 1427.97 1447.77 1433.08 1447.84 1438.76C1447.99 1444.44 1450.75 1449.95 1456.39 1455.31L1457.64 1456.5C1463.29 1461.86 1468.9 1464.27 1474.49 1464.05L1474.51 1464.05ZM1446.4 1438.78C1446.33 1432.69 1448.58 1427.22 1453.17 1422.39C1457.76 1417.55 1463.1 1415.01 1469.19 1414.77C1475.36 1414.61 1481.37 1417.3 1487.2 1422.83L1488.45 1424.02C1494.29 1429.56 1497.25 1435.37 1497.33 1441.47C1497.49 1447.64 1495.28 1453.15 1490.69 1457.98C1486.02 1462.9 1480.64 1465.4 1474.54 1465.48C1468.45 1465.72 1462.49 1463.08 1456.65 1457.54L1455.4 1456.35C1449.57 1450.81 1446.57 1444.96 1446.4 1438.78ZM1438.12 1408.11C1444.11 1401.8 1450.81 1397.3 1458.21 1394.67C1465.64 1392.03 1473.22 1391.58 1480.92 1393.31C1488.67 1395.06 1495.95 1399.21 1502.77 1405.68L1504.77 1407.58C1511.59 1414.05 1516.12 1421.1 1518.26 1428.74C1520.4 1436.34 1520.34 1443.94 1518.1 1451.49C1515.86 1459.02 1511.73 1465.95 1505.74 1472.26C1499.75 1478.58 1493.05 1483.07 1485.64 1485.7C1478.22 1488.34 1470.64 1488.79 1462.93 1487.06C1455.19 1485.32 1447.91 1481.16 1441.09 1474.69L1439.09 1472.8C1432.27 1466.33 1427.74 1459.27 1425.59 1451.63C1423.46 1444.03 1423.51 1436.44 1425.75 1428.88C1427.99 1421.35 1432.13 1414.42 1438.12 1408.11ZM1458.69 1396.02C1451.53 1398.57 1445.01 1402.93 1439.16 1409.1C1433.31 1415.27 1429.3 1422 1427.13 1429.29C1424.97 1436.58 1424.91 1443.9 1426.98 1451.25C1429.04 1458.59 1433.41 1465.43 1440.08 1471.75L1442.08 1473.65C1448.75 1479.98 1455.8 1483.98 1463.25 1485.66C1470.69 1487.33 1477.99 1486.89 1485.16 1484.35C1492.33 1481.8 1498.84 1477.44 1504.69 1471.27C1510.55 1465.1 1514.56 1458.37 1516.72 1451.08C1518.89 1443.79 1518.94 1436.47 1516.88 1429.13C1514.82 1421.78 1510.45 1414.95 1503.78 1408.62L1501.78 1406.72C1495.11 1400.39 1488.05 1396.39 1480.61 1394.72C1473.17 1393.04 1465.86 1393.48 1458.69 1396.02Z" fill="#5A5A5A"/>
<path d="M1354.84 1490.23L1371.27 1514.08L1361.09 1604.42L1362.65 1606.69L1410.35 1573.82L1421.89 1590.57L1354.61 1636.94L1338.17 1613.09L1348.35 1522.75L1346.79 1520.48L1297.39 1554.52L1285.85 1537.77L1354.84 1490.23Z" fill="#121212"/>
<path fill-rule="evenodd" clip-rule="evenodd" d="M1355.2 1488.23L1372.76 1513.7L1362.58 1604.05L1363.02 1604.69L1410.72 1571.82L1423.89 1590.94L1354.24 1638.94L1336.68 1613.47L1346.87 1523.12L1346.42 1522.48L1297.02 1556.52L1283.85 1537.4L1355.2 1488.23ZM1346.79 1520.48L1348.35 1522.75L1338.17 1613.09L1354.61 1636.94L1421.89 1590.57L1410.35 1573.82L1362.65 1606.69L1361.09 1604.42L1371.27 1514.08L1354.84 1490.23L1285.85 1537.77L1297.39 1554.52L1346.79 1520.48Z" fill="#5A5A5A"/>
<path d="M1225.93 1566.9C1233.55 1563.11 1241.16 1561.25 1248.77 1561.32C1256.37 1561.39 1263.38 1563.49 1269.8 1567.61C1276.21 1571.74 1281.47 1577.92 1285.56 1586.15L1286.79 1588.62C1290.89 1596.85 1292.64 1604.77 1292.06 1612.38C1291.48 1619.98 1288.92 1626.84 1284.38 1632.95C1279.85 1639.05 1273.77 1644 1266.15 1647.79C1258.54 1651.57 1250.93 1653.43 1243.32 1653.36C1235.71 1653.3 1228.7 1651.2 1222.29 1647.07C1215.87 1642.95 1210.62 1636.77 1206.52 1628.54L1205.29 1626.07C1201.2 1617.83 1199.44 1609.91 1200.03 1602.31C1200.61 1594.7 1203.17 1587.85 1207.7 1581.74C1212.24 1575.63 1218.32 1570.69 1225.93 1566.9ZM1234.53 1584.19C1228.56 1587.16 1224.57 1591.52 1222.55 1597.27C1220.58 1603.12 1221.39 1609.65 1224.97 1616.86L1225.74 1618.4C1229.32 1625.6 1234.02 1630.14 1239.82 1632C1245.57 1634.02 1251.49 1633.52 1257.56 1630.5C1263.53 1627.53 1267.49 1623.12 1269.46 1617.26C1271.48 1611.51 1270.69 1605.03 1267.11 1597.83L1266.34 1596.29C1262.76 1589.08 1258.04 1584.5 1252.19 1582.53C1246.38 1580.67 1240.5 1581.22 1234.53 1584.19Z" fill="#121212"/>
<path fill-rule="evenodd" clip-rule="evenodd" d="M1240.28 1630.64L1240.3 1630.65C1245.64 1632.52 1251.15 1632.08 1256.92 1629.21C1262.57 1626.4 1266.26 1622.27 1268.1 1616.81L1268.1 1616.79L1268.1 1616.79C1269.96 1611.51 1269.29 1605.44 1265.83 1598.47L1265.06 1596.93C1261.59 1589.96 1257.13 1585.71 1251.74 1583.9C1246.33 1582.16 1240.83 1582.66 1235.17 1585.47C1229.5 1588.29 1225.79 1592.38 1223.91 1597.74C1222.1 1603.13 1222.8 1609.25 1226.26 1616.22L1227.03 1617.76C1230.5 1624.73 1234.93 1628.92 1240.26 1630.63L1240.28 1630.64ZM1222.55 1597.27C1224.57 1591.52 1228.56 1587.16 1234.53 1584.19C1240.5 1581.22 1246.38 1580.67 1252.19 1582.53C1258.04 1584.5 1262.76 1589.08 1266.34 1596.29L1267.11 1597.83C1270.69 1605.03 1271.48 1611.51 1269.46 1617.26C1267.49 1623.12 1263.53 1627.53 1257.56 1630.5C1251.49 1633.52 1245.57 1634.02 1239.82 1632C1234.02 1630.14 1229.32 1625.6 1225.74 1618.4L1224.97 1616.86C1221.39 1609.65 1220.58 1603.12 1222.55 1597.27ZM1225.29 1565.61C1233.09 1561.74 1240.92 1559.81 1248.78 1559.89C1256.66 1559.96 1263.93 1562.13 1270.58 1566.4C1277.25 1570.7 1282.66 1577.09 1286.85 1585.51L1288.08 1587.98C1292.26 1596.4 1294.1 1604.58 1293.49 1612.49C1292.89 1620.36 1290.23 1627.48 1285.54 1633.8C1280.85 1640.11 1274.59 1645.2 1266.79 1649.07C1259 1652.95 1251.17 1654.87 1243.31 1654.8C1235.43 1654.73 1228.15 1652.55 1221.51 1648.28C1214.84 1643.99 1209.42 1637.59 1205.24 1629.18L1204.01 1626.71C1199.82 1618.29 1197.99 1610.11 1198.59 1602.2C1199.2 1594.32 1201.85 1587.21 1206.55 1580.88C1211.24 1574.57 1217.5 1569.49 1225.29 1565.61ZM1248.76 1561.32C1241.16 1561.25 1233.55 1563.11 1225.93 1566.9C1218.32 1570.69 1212.24 1575.63 1207.7 1581.74C1203.17 1587.85 1200.61 1594.7 1200.03 1602.31C1199.44 1609.91 1201.2 1617.83 1205.29 1626.07L1206.52 1628.54C1210.62 1636.77 1215.87 1642.95 1222.29 1647.07C1228.7 1651.2 1235.71 1653.3 1243.32 1653.36C1250.93 1653.43 1258.54 1651.57 1266.15 1647.79C1273.77 1644 1279.85 1639.05 1284.38 1632.95C1288.92 1626.84 1291.48 1619.98 1292.06 1612.38C1292.64 1604.77 1290.89 1596.85 1286.79 1588.62L1285.56 1586.15C1281.47 1577.92 1276.21 1571.74 1269.8 1567.61C1263.38 1563.49 1256.37 1561.39 1248.76 1561.32Z" fill="#5A5A5A"/>
<path d="M1118.89 1614.17L1126.14 1642.21L1085.58 1723.58L1086.27 1726.25L1142.35 1711.74L1147.44 1731.43L1068.33 1751.9L1061.08 1723.86L1101.64 1642.49L1100.95 1639.82L1042.87 1654.85L1037.77 1635.16L1118.89 1614.17Z" fill="#121212"/>
<path fill-rule="evenodd" clip-rule="evenodd" d="M1119.92 1612.42L1127.67 1642.37L1087.11 1723.74L1087.3 1724.5L1143.38 1709.99L1149.2 1732.46L1067.3 1753.65L1059.56 1723.7L1100.12 1642.33L1099.92 1641.57L1041.84 1656.6L1036.02 1634.12L1119.92 1612.42ZM1100.95 1639.82L1101.64 1642.49L1061.08 1723.86L1068.33 1751.9L1147.45 1731.43L1142.35 1711.74L1086.27 1726.25L1085.58 1723.58L1126.14 1642.21L1118.89 1614.17L1037.77 1635.16L1042.87 1654.85L1100.95 1639.82Z" fill="#5A5A5A"/>
<path d="M971.503 1641.96C979.955 1641.02 987.742 1641.88 994.864 1644.55C1001.99 1647.23 1007.85 1651.6 1012.46 1657.68C1017.07 1663.76 1019.89 1671.36 1020.91 1680.5L1021.22 1683.24C1022.24 1692.38 1021.17 1700.42 1018.01 1707.37C1014.86 1714.31 1010.1 1719.87 1003.74 1724.05C997.387 1728.23 989.983 1730.79 981.53 1731.74C973.078 1732.68 965.291 1731.82 958.169 1729.14C951.048 1726.47 945.181 1722.09 940.571 1716.02C935.96 1709.94 933.144 1702.33 932.124 1693.19L931.818 1690.45C930.797 1681.31 931.865 1673.27 935.021 1666.33C938.177 1659.39 942.934 1653.82 949.29 1649.64C955.646 1645.46 963.051 1642.9 971.503 1641.96ZM973.646 1661.15C967.021 1661.89 961.775 1664.61 957.906 1669.32C954.051 1674.15 952.57 1680.56 953.463 1688.56L953.654 1690.27C954.547 1698.26 957.4 1704.13 962.212 1707.87C966.923 1711.74 972.648 1713.3 979.387 1712.55C986.012 1711.81 991.252 1709.02 995.108 1704.2C998.976 1699.49 1000.46 1693.14 999.571 1685.14L999.379 1683.43C998.486 1675.43 995.627 1669.51 990.802 1665.65C985.989 1661.91 980.271 1660.41 973.646 1661.15Z" fill="#121212"/>
<path fill-rule="evenodd" clip-rule="evenodd" d="M963.11 1706.75L963.125 1706.76C967.501 1710.36 972.827 1711.83 979.228 1711.12C985.507 1710.42 990.388 1707.81 993.986 1703.3L993.998 1703.29L993.998 1703.29C997.549 1698.96 999.008 1693.04 998.143 1685.3L997.952 1683.59C997.089 1675.85 994.354 1670.33 989.913 1666.78C985.427 1663.29 980.094 1661.87 973.806 1662.58C967.519 1663.28 962.63 1665.84 959.023 1670.23C955.476 1674.67 954.027 1680.66 954.891 1688.4L955.082 1690.11C955.947 1697.85 958.677 1703.31 963.095 1706.74L963.11 1706.75ZM957.907 1669.32C961.775 1664.61 967.022 1661.89 973.647 1661.15C980.272 1660.41 985.99 1661.91 990.803 1665.65C995.628 1669.51 998.487 1675.43 999.38 1683.43L999.571 1685.14C1000.46 1693.14 998.977 1699.49 995.108 1704.2C991.253 1709.02 986.012 1711.81 979.388 1712.55C972.649 1713.3 966.924 1711.74 962.213 1707.87C957.4 1704.13 954.548 1698.26 953.655 1690.27L953.463 1688.56C952.57 1680.56 954.052 1674.15 957.907 1669.32ZM971.344 1640.53C979.994 1639.57 988.012 1640.45 995.37 1643.21C1002.75 1645.98 1008.83 1650.52 1013.61 1656.81C1018.4 1663.13 1021.29 1671 1022.34 1680.34L1022.64 1683.08C1023.69 1692.43 1022.6 1700.74 1019.32 1707.96C1016.05 1715.15 1011.12 1720.92 1004.53 1725.25C997.966 1729.57 990.341 1732.2 981.69 1733.16C973.04 1734.13 965.022 1733.25 957.665 1730.49C950.289 1727.72 944.201 1723.18 939.427 1716.88C934.63 1710.56 931.74 1702.7 930.697 1693.35L930.391 1690.61C929.347 1681.27 930.43 1672.96 933.714 1665.74C936.982 1658.54 941.918 1652.77 948.501 1648.44C955.068 1644.13 962.694 1641.5 971.344 1640.53ZM994.865 1644.55C987.743 1641.88 979.956 1641.02 971.504 1641.96C963.051 1642.9 955.647 1645.46 949.291 1649.64C942.934 1653.82 938.178 1659.39 935.022 1666.33C931.866 1673.27 930.798 1681.31 931.818 1690.45L932.124 1693.19C933.145 1702.33 935.961 1709.94 940.571 1716.02C945.182 1722.09 951.048 1726.47 958.17 1729.14C965.292 1731.82 973.079 1732.68 981.531 1731.74C989.983 1730.79 997.388 1728.23 1003.74 1724.05C1010.1 1719.87 1014.86 1714.31 1018.01 1707.37C1021.17 1700.42 1022.24 1692.38 1021.22 1683.24L1020.91 1680.5C1019.89 1671.36 1017.07 1663.76 1012.46 1657.68C1007.85 1651.6 1001.99 1647.23 994.865 1644.55Z" fill="#5A5A5A"/>
<path d="M854.738 1649.63L851.931 1678.46L785.914 1740.97L785.646 1743.71L843.299 1749.33L841.327 1769.57L759.996 1761.65L762.803 1732.83L828.821 1670.32L829.088 1667.57L769.377 1661.76L771.348 1641.51L854.738 1649.63Z" fill="#121212"/>
<path fill-rule="evenodd" clip-rule="evenodd" d="M856.307 1648.34L853.309 1679.13L787.292 1741.64L787.216 1742.42L844.868 1748.04L842.618 1771.14L758.427 1762.94L761.426 1732.15L827.443 1669.64L827.519 1668.86L767.808 1663.05L770.058 1639.94L856.307 1648.34ZM829.088 1667.57L828.821 1670.32L762.803 1732.83L759.997 1761.65L841.327 1769.57L843.299 1749.33L785.647 1743.71L785.914 1740.97L851.932 1678.46L854.738 1649.63L771.348 1641.51L769.377 1661.76L829.088 1667.57Z" fill="#5A5A5A"/>
<path d="M706.766 1625.16C715.029 1627.18 722.047 1630.66 727.819 1635.62C733.59 1640.57 737.599 1646.69 739.845 1653.98C742.091 1661.27 742.125 1669.39 739.949 1678.32L739.296 1681C737.119 1689.93 733.357 1697.12 728.01 1702.56C722.662 1708 716.286 1711.59 708.882 1713.34C701.478 1715.08 693.644 1714.95 685.381 1712.93C677.118 1710.92 670.1 1707.43 664.328 1702.48C658.556 1697.52 654.548 1691.4 652.302 1684.11C650.056 1676.82 650.022 1668.71 652.198 1659.78L652.851 1657.1C655.028 1648.16 658.79 1640.98 664.137 1635.54C669.484 1630.1 675.86 1626.51 683.265 1624.76C690.669 1623.02 698.503 1623.15 706.766 1625.16ZM702.195 1643.92C695.719 1642.35 689.855 1643.11 684.606 1646.2C679.328 1649.41 675.738 1654.93 673.833 1662.74L673.425 1664.42C671.52 1672.23 672.186 1678.72 675.423 1683.89C678.521 1689.14 683.364 1692.57 689.952 1694.17C696.428 1695.75 702.305 1694.93 707.582 1691.73C712.832 1688.63 716.409 1683.17 718.314 1675.35L718.722 1673.68C720.626 1665.86 719.974 1659.32 716.765 1654.04C713.528 1648.87 708.672 1645.5 702.195 1643.92Z" fill="#121212"/>
<path fill-rule="evenodd" clip-rule="evenodd" d="M676.652 1683.14L676.661 1683.16C679.539 1688.04 684.035 1691.25 690.293 1692.78C696.431 1694.27 701.912 1693.49 706.837 1690.5L706.853 1690.49L706.853 1690.49C711.672 1687.64 715.076 1682.58 716.919 1675.01L717.327 1673.34C719.169 1665.78 718.496 1659.65 715.543 1654.79C712.525 1649.98 708.003 1646.82 701.856 1645.32C695.709 1643.82 690.238 1644.55 685.345 1647.44C680.487 1650.39 677.072 1655.52 675.23 1663.08L674.822 1664.76C672.978 1672.32 673.67 1678.39 676.641 1683.13L676.652 1683.14ZM684.606 1646.2C689.856 1643.11 695.72 1642.35 702.196 1643.92C708.673 1645.5 713.529 1648.87 716.766 1654.04C719.975 1659.32 720.627 1665.86 718.723 1673.68L718.315 1675.35C716.41 1683.17 712.833 1688.63 707.583 1691.73C702.306 1694.93 696.429 1695.75 689.953 1694.17C683.365 1692.57 678.522 1689.14 675.424 1683.89C672.187 1678.72 671.521 1672.23 673.426 1664.42L673.834 1662.74C675.739 1654.93 679.329 1649.41 684.606 1646.2ZM707.107 1623.77C715.564 1625.83 722.792 1629.41 728.755 1634.53C734.734 1639.66 738.894 1646.01 741.219 1653.56C743.555 1661.15 743.571 1669.53 741.345 1678.66L740.692 1681.34C738.467 1690.47 734.598 1697.91 729.035 1703.57C723.498 1709.2 716.882 1712.93 709.213 1714.73C701.563 1716.54 693.498 1716.39 685.042 1714.33C676.585 1712.27 669.357 1708.69 663.393 1703.57C657.415 1698.44 653.255 1692.08 650.93 1684.53C648.593 1676.95 648.578 1668.57 650.803 1659.44L651.456 1656.76C653.682 1647.62 657.55 1640.19 663.114 1634.53C668.65 1628.9 675.267 1625.17 682.936 1623.36C690.586 1621.56 698.65 1621.71 707.107 1623.77ZM727.819 1635.62C722.048 1630.66 715.03 1627.18 706.767 1625.16C698.504 1623.15 690.67 1623.02 683.266 1624.76C675.861 1626.51 669.485 1630.1 664.138 1635.54C658.791 1640.98 655.029 1648.16 652.852 1657.1L652.199 1659.78C650.022 1668.71 650.057 1676.82 652.303 1684.11C654.549 1691.4 658.557 1697.52 664.329 1702.48C670.101 1707.43 677.119 1710.92 685.382 1712.93C693.645 1714.95 701.479 1715.08 708.883 1713.33C716.287 1711.59 722.663 1708 728.011 1702.56C733.358 1697.12 737.12 1689.93 739.297 1681L739.95 1678.32C742.126 1669.39 742.092 1661.27 739.846 1653.98C737.6 1646.69 733.591 1640.57 727.819 1635.62Z" fill="#5A5A5A"/>
<path d="M594.456 1592.31L581.929 1618.42L498.471 1654.48L497.278 1656.97L549.504 1682.03L540.705 1700.37L467.029 1665.02L479.556 1638.91L563.014 1602.85L564.207 1600.36L510.115 1574.41L518.914 1556.07L594.456 1592.31Z" fill="#121212"/>
<path fill-rule="evenodd" clip-rule="evenodd" d="M596.372 1591.63L582.992 1619.53L499.534 1655.59L499.194 1656.3L551.421 1681.35L541.379 1702.28L465.112 1665.7L478.493 1637.8L561.951 1601.74L562.29 1601.03L508.199 1575.08L518.24 1554.15L596.372 1591.63ZM564.207 1600.36L563.014 1602.85L479.556 1638.91L467.029 1665.02L540.705 1700.37L549.504 1682.03L497.278 1656.97L498.471 1654.48L581.929 1618.42L594.456 1592.31L518.914 1556.07L510.115 1574.41L564.207 1600.36Z" fill="#5A5A5A"/>
<path d="M463.863 1518.55C470.933 1523.28 476.329 1528.96 480.051 1535.6C483.772 1542.23 485.437 1549.36 485.045 1556.97C484.653 1564.59 481.902 1572.22 476.793 1579.87L475.26 1582.16C470.15 1589.8 464.151 1595.26 457.262 1598.54C450.373 1601.81 443.151 1603 435.598 1602.1C428.044 1601.2 420.732 1598.38 413.661 1593.66C406.591 1588.93 401.195 1583.25 397.473 1576.61C393.752 1569.98 392.087 1562.85 392.479 1555.24C392.871 1547.62 395.622 1539.99 400.731 1532.34L402.264 1530.05C407.374 1522.41 413.373 1516.95 420.262 1513.67C427.151 1510.4 434.373 1509.21 441.926 1510.11C449.48 1511.01 456.792 1513.83 463.863 1518.55ZM453.133 1534.61C447.591 1530.9 441.823 1529.6 435.829 1530.71C429.771 1531.92 424.506 1535.86 420.036 1542.55L419.078 1543.98C414.607 1550.67 413.005 1557 414.273 1562.96C415.381 1568.95 418.754 1573.84 424.391 1577.6C429.933 1581.31 435.733 1582.56 441.791 1581.35C447.785 1580.25 453.018 1576.35 457.488 1569.66L458.447 1568.23C462.917 1561.54 464.551 1555.16 463.347 1549.11C462.079 1543.14 458.674 1538.31 453.133 1534.61Z" fill="#121212"/>
<path fill-rule="evenodd" clip-rule="evenodd" d="M415.683 1562.68L415.686 1562.7C416.716 1568.27 419.835 1572.83 425.19 1576.41C430.443 1579.92 435.859 1581.07 441.512 1579.95L441.53 1579.94L441.53 1579.94C447.033 1578.92 451.967 1575.33 456.295 1568.86L457.253 1567.43C461.576 1560.96 463.046 1554.97 461.94 1549.4C460.757 1543.84 457.594 1539.32 452.335 1535.8C447.075 1532.28 441.686 1531.09 436.1 1532.12C430.523 1533.23 425.554 1536.88 421.23 1543.35L420.272 1544.78C415.945 1551.26 414.515 1557.19 415.679 1562.66L415.683 1562.68ZM435.829 1530.71C441.823 1529.6 447.591 1530.9 453.133 1534.61C458.675 1538.31 462.08 1543.14 463.347 1549.11C464.551 1555.16 462.918 1561.54 458.447 1568.23L457.489 1569.66C453.018 1576.35 447.786 1580.25 441.792 1581.35C435.734 1582.56 429.934 1581.31 424.392 1577.6C418.755 1573.84 415.382 1568.95 414.273 1562.96C413.006 1557 414.607 1550.67 419.078 1543.98L420.036 1542.55C424.507 1535.86 429.771 1531.92 435.829 1530.71ZM464.661 1517.36C471.898 1522.2 477.46 1528.04 481.304 1534.89C485.159 1541.76 486.886 1549.16 486.48 1557.05C486.072 1564.97 483.212 1572.85 477.988 1580.67L476.455 1582.96C471.231 1590.77 465.046 1596.43 457.879 1599.84C450.746 1603.23 443.251 1604.46 435.428 1603.52C427.624 1602.59 420.1 1599.69 412.864 1594.85C405.627 1590.01 400.065 1584.17 396.221 1577.32C392.366 1570.45 390.639 1563.05 391.045 1555.16C391.453 1547.24 394.313 1539.36 399.537 1531.54L401.07 1529.25C406.294 1521.44 412.479 1515.78 419.646 1512.37C426.779 1508.98 434.274 1507.75 442.097 1508.69C449.901 1509.62 457.425 1512.52 464.661 1517.36ZM480.051 1535.6C476.33 1528.96 470.934 1523.28 463.863 1518.55C456.792 1513.83 449.48 1511.01 441.927 1510.11C434.373 1509.21 427.152 1510.4 420.263 1513.67C413.374 1516.95 407.374 1522.41 402.265 1530.05L400.732 1532.34C395.622 1539.99 392.871 1547.62 392.48 1555.24C392.088 1562.85 393.753 1569.98 397.474 1576.61C401.195 1583.25 406.591 1588.93 413.662 1593.66C420.733 1598.38 428.045 1601.2 435.598 1602.1C443.152 1603 450.373 1601.81 457.262 1598.54C464.152 1595.26 470.151 1589.8 475.26 1582.16L476.793 1579.87C481.903 1572.22 484.654 1564.59 485.045 1556.97C485.437 1549.36 483.772 1542.23 480.051 1535.6Z" fill="#5A5A5A"/>
<path d="M369.645 1449.16L348.919 1469.39L258.153 1474.62L256.179 1476.55L296.639 1518L282.081 1532.21L225.004 1473.73L245.731 1453.5L336.496 1448.27L338.47 1446.34L296.566 1403.41L311.123 1389.2L369.645 1449.16Z" fill="#121212"/>
<path fill-rule="evenodd" clip-rule="evenodd" d="M371.676 1449.18L349.537 1470.79L258.772 1476.03L258.21 1476.58L298.67 1518.03L282.056 1534.24L222.972 1473.71L245.111 1452.1L335.876 1446.86L336.438 1446.31L294.533 1403.38L311.147 1387.17L371.676 1449.18ZM338.469 1446.34L336.495 1448.27L245.73 1453.5L225.004 1473.73L282.08 1532.21L296.638 1518L256.179 1476.55L258.153 1474.62L348.918 1469.39L369.644 1449.16L311.123 1389.2L296.565 1403.41L338.469 1446.34Z" fill="#5A5A5A"/>
<path d="M272.285 1335.07C277.305 1341.94 280.424 1349.12 281.643 1356.63C282.862 1364.14 281.981 1371.41 278.999 1378.43C276.017 1385.45 270.815 1391.67 263.393 1397.1L261.166 1398.73C253.744 1404.15 246.236 1407.22 238.641 1407.94C231.046 1408.65 223.856 1407.28 217.071 1403.85C210.285 1400.41 204.383 1395.25 199.363 1388.39C194.343 1381.52 191.224 1374.34 190.005 1366.83C188.786 1359.32 189.667 1352.05 192.649 1345.03C195.631 1338.01 200.833 1331.79 208.255 1326.36L210.482 1324.73C217.904 1319.31 225.412 1316.24 233.007 1315.52C240.601 1314.81 247.792 1316.18 254.577 1319.61C261.363 1323.05 267.265 1328.21 272.285 1335.07ZM256.699 1346.47C252.764 1341.09 247.792 1337.89 241.781 1336.87C235.678 1335.92 229.379 1337.82 222.885 1342.57L221.493 1343.59C214.999 1348.34 211.324 1353.73 210.469 1359.77C209.454 1365.78 210.947 1371.52 214.949 1376.99C218.884 1382.37 223.902 1385.54 230.006 1386.49C236.016 1387.5 242.269 1385.64 248.763 1380.89L250.155 1379.87C256.649 1375.12 260.37 1369.69 261.318 1363.59C262.173 1357.56 260.633 1351.85 256.699 1346.47Z" fill="#121212"/>
<path fill-rule="evenodd" clip-rule="evenodd" d="M211.888 1359.99L211.885 1360.01C210.942 1365.59 212.306 1370.95 216.108 1376.14C219.837 1381.25 224.53 1384.18 230.225 1385.07L230.244 1385.07L230.244 1385.07C235.762 1386 241.629 1384.32 247.914 1379.73L249.306 1378.71C255.586 1374.12 259.02 1369 259.896 1363.38C260.69 1357.76 259.272 1352.42 255.538 1347.32C251.804 1342.21 247.151 1339.24 241.55 1338.29C235.931 1337.42 230.012 1339.14 223.732 1343.73L222.341 1344.75C216.055 1349.35 212.676 1354.43 211.891 1359.97L211.888 1359.99ZM241.781 1336.87C247.791 1337.89 252.763 1341.09 256.698 1346.47C260.632 1351.85 262.172 1357.56 261.317 1363.59C260.369 1369.7 256.648 1375.12 250.154 1379.87L248.762 1380.89C242.268 1385.64 236.015 1387.5 230.005 1386.49C223.902 1385.54 218.883 1382.37 214.949 1376.99C210.946 1371.52 209.453 1365.78 210.469 1359.77C211.324 1353.73 214.998 1348.34 221.493 1343.59L222.884 1342.57C229.379 1337.82 235.677 1335.92 241.781 1336.87ZM273.444 1334.22C278.581 1341.25 281.801 1348.64 283.06 1356.4C284.323 1364.18 283.408 1371.72 280.32 1378.99C277.218 1386.29 271.828 1392.71 264.24 1398.26L262.013 1399.89C254.425 1405.43 246.675 1408.62 238.774 1409.37C230.911 1410.1 223.449 1408.69 216.421 1405.13C209.41 1401.57 203.34 1396.26 198.202 1389.24C193.065 1382.21 189.845 1374.82 188.586 1367.06C187.323 1359.28 188.238 1351.74 191.326 1344.47C194.428 1337.17 199.818 1330.75 207.406 1325.2L209.633 1323.57C217.221 1318.03 224.971 1314.84 232.872 1314.09C240.736 1313.36 248.198 1314.77 255.226 1318.33C262.236 1321.89 268.307 1327.2 273.444 1334.22ZM281.642 1356.63C280.423 1349.12 277.304 1341.94 272.284 1335.07C267.265 1328.21 261.362 1323.05 254.576 1319.61C247.791 1316.18 240.601 1314.81 233.006 1315.52C225.411 1316.24 217.903 1319.31 210.481 1324.73L208.254 1326.36C200.832 1331.79 195.63 1338.01 192.648 1345.03C189.667 1352.05 188.785 1359.32 190.004 1366.83C191.223 1374.34 194.342 1381.52 199.362 1388.39C204.382 1395.25 210.285 1400.41 217.07 1403.85C223.856 1407.28 231.046 1408.65 238.64 1407.94C246.235 1407.22 253.743 1404.15 261.165 1398.73L263.392 1397.1C270.814 1391.67 276.016 1385.45 278.998 1378.43C281.98 1371.41 282.861 1364.14 281.642 1356.63Z" fill="#5A5A5A"/>
<path d="M207.597 1237.56L181.188 1249.45L94.1351 1223.23L91.62 1224.36L115.4 1277.18L96.8508 1285.53L63.3037 1211.02L89.713 1199.13L176.766 1225.35L179.281 1224.22L154.651 1169.51L173.201 1161.16L207.597 1237.56Z" fill="#121212"/>
<path fill-rule="evenodd" clip-rule="evenodd" d="M209.497 1238.28L181.287 1250.98L94.2346 1224.76L93.5192 1225.08L117.299 1277.9L96.1301 1287.43L61.4034 1210.3L89.6125 1197.6L176.665 1223.82L177.381 1223.5L152.751 1168.79L173.921 1159.26L209.497 1238.28ZM179.28 1224.22L176.765 1225.35L89.7125 1199.13L63.3032 1211.02L96.8503 1285.53L115.4 1277.18L91.6195 1224.36L94.1346 1223.23L181.187 1249.45L207.597 1237.56L173.2 1161.16L154.651 1169.51L179.28 1224.22Z" fill="#5A5A5A"/>
<path d="M155.292 1096.99C157.652 1105.17 158.116 1112.99 156.684 1120.46C155.253 1127.93 151.932 1134.45 146.722 1140.02C141.513 1145.59 134.491 1149.65 125.657 1152.21L123.007 1152.97C114.174 1155.52 106.068 1155.83 98.69 1153.89C91.3121 1151.95 85.0262 1148.21 79.8325 1142.65C74.6388 1137.09 70.8622 1130.23 68.5028 1122.05C66.1434 1113.88 65.6794 1106.06 67.1109 1098.59C68.5423 1091.12 71.8629 1084.6 77.0728 1079.03C82.2826 1073.46 89.3043 1069.39 98.1379 1066.84L100.788 1066.08C109.621 1063.53 117.727 1063.22 125.105 1065.16C132.483 1067.09 138.769 1070.84 143.963 1076.4C149.156 1081.96 152.933 1088.82 155.292 1096.99ZM136.742 1102.35C134.893 1095.95 131.32 1091.24 126.022 1088.22C120.615 1085.24 114.046 1084.86 106.317 1087.09L104.661 1087.57C96.9315 1089.8 91.6298 1093.6 88.7559 1098.98C85.7397 1104.28 85.1721 1110.18 87.0533 1116.7C88.9025 1123.1 92.5309 1127.8 97.9384 1130.78C103.236 1133.8 109.749 1134.19 117.478 1131.96L119.134 1131.48C126.864 1129.25 132.221 1125.43 135.205 1120.02C138.079 1114.64 138.591 1108.75 136.742 1102.35Z" fill="#121212"/>
<path fill-rule="evenodd" clip-rule="evenodd" d="M90.0131 1099.68L90.0036 1099.69C87.2017 1104.61 86.6459 1110.11 88.4328 1116.3C90.1856 1122.37 93.5861 1126.74 98.6319 1129.52L98.6486 1129.53L98.6486 1129.53C103.511 1132.3 109.598 1132.74 117.079 1130.58L118.735 1130.1C126.209 1127.94 131.191 1124.31 133.942 1119.34C136.618 1114.32 137.116 1108.83 135.361 1102.75C133.606 1096.67 130.254 1092.29 125.319 1089.47C120.339 1086.73 114.189 1086.31 106.715 1088.47L105.059 1088.95C97.5777 1091.11 92.6602 1094.72 90.0221 1099.66L90.0131 1099.68ZM126.022 1088.22C131.319 1091.24 134.892 1095.95 136.741 1102.35C138.59 1108.76 138.078 1114.65 135.204 1120.02C132.22 1125.43 126.863 1129.25 119.134 1131.48L117.477 1131.96C109.748 1134.19 103.235 1133.8 97.9377 1130.78C92.5302 1127.8 88.9018 1123.1 87.0525 1116.7C85.1714 1110.18 85.7389 1104.28 88.7552 1098.98C91.6291 1093.61 96.9307 1089.8 104.66 1087.57L106.316 1087.09C114.046 1084.86 120.614 1085.24 126.022 1088.22ZM156.672 1096.6C159.087 1104.96 159.573 1113.01 158.095 1120.73C156.612 1128.47 153.166 1135.23 147.771 1141C142.351 1146.8 135.086 1150.98 126.055 1153.59L123.405 1154.35C114.374 1156.96 106 1157.3 98.3245 1155.28C90.685 1153.28 84.1615 1149.39 78.7821 1143.63C73.4164 1137.89 69.5365 1130.82 67.1218 1122.45C64.7072 1114.09 64.2203 1106.04 65.6992 1098.32C67.1818 1090.58 70.6282 1083.82 76.0227 1078.05C81.4427 1072.25 88.7074 1068.07 97.7386 1065.46L100.389 1064.7C109.42 1062.09 117.794 1061.75 125.469 1063.77C133.109 1065.77 139.632 1069.66 145.012 1075.42C150.377 1081.16 154.257 1088.23 156.672 1096.6ZM156.684 1120.46C158.115 1112.99 157.651 1105.17 155.292 1096.99C152.932 1088.82 149.156 1081.96 143.962 1076.4C138.768 1070.84 132.482 1067.09 125.104 1065.16C117.727 1063.22 109.621 1063.53 100.787 1066.08L98.1372 1066.84C89.3036 1069.39 82.2819 1073.46 77.0721 1079.03C71.8622 1084.6 68.5416 1091.12 67.1101 1098.59C65.6787 1106.06 66.1427 1113.88 68.5021 1122.06C70.8615 1130.23 74.638 1137.09 79.8318 1142.65C85.0255 1148.21 91.3113 1151.95 98.6893 1153.89C106.067 1155.83 114.173 1155.52 123.007 1152.97L125.657 1152.21C134.49 1149.66 141.512 1145.59 146.722 1140.02C151.932 1134.45 155.252 1127.93 156.684 1120.46Z" fill="#5A5A5A"/>
<path d="M127.99 983.206L99.1043 985.313L26.3334 930.814L23.5823 931.015L27.7962 988.786L7.5074 990.266L1.56286 908.767L30.4486 906.66L103.22 961.159L105.971 960.959L101.606 901.124L121.895 899.644L127.99 983.206Z" fill="#121212"/>
<path fill-rule="evenodd" clip-rule="evenodd" d="M129.528 984.535L98.6733 986.785L25.9023 932.286L25.1199 932.343L29.3337 990.114L6.17928 991.803L0.0257096 907.439L30.88 905.188L103.651 959.688L104.433 959.63L100.069 899.796L123.224 898.107L129.528 984.535ZM105.971 960.959L103.22 961.159L30.4488 906.66L1.56304 908.767L7.50759 990.266L27.7964 988.786L23.5825 931.015L26.3336 930.814L99.1045 985.313L127.99 983.207L121.895 899.644L101.606 901.124L105.971 960.959Z" fill="#5A5A5A"/>
<path d="M127.089 833.228C126.501 841.712 124.253 849.218 120.345 855.744C116.437 862.271 111.081 867.257 104.275 870.703C97.4701 874.149 89.4812 875.554 80.3087 874.919L77.557 874.729C68.3845 874.093 60.6655 871.601 54.4 867.25C48.1345 862.899 43.5161 857.222 40.5448 850.219C37.5735 843.217 36.3815 835.473 36.9689 826.988C37.5564 818.504 39.8041 810.998 43.7121 804.472C47.6202 797.945 52.9768 792.959 59.7821 789.513C66.5874 786.067 74.5763 784.662 83.7488 785.297L86.5005 785.487C95.673 786.122 103.392 788.615 109.657 792.966C115.923 797.317 120.541 802.994 123.513 809.997C126.484 816.999 127.676 824.743 127.089 833.228ZM107.826 831.894C108.287 825.244 106.547 819.594 102.606 814.943C98.5508 810.284 92.5102 807.677 84.4842 807.122L82.7644 807.003C74.7385 806.447 68.4536 808.201 63.9096 812.264C59.259 816.205 56.6995 821.557 56.2311 828.322C55.7707 834.972 57.5682 840.626 61.6234 845.285C65.5641 849.935 71.5473 852.539 79.5733 853.094L81.2931 853.213C89.319 853.769 95.6613 852.019 100.32 847.964C104.864 843.901 107.366 838.544 107.826 831.894Z" fill="#121212"/>
<path fill-rule="evenodd" clip-rule="evenodd" d="M64.8522 813.348L64.8376 813.36C60.5174 817.021 58.1085 821.995 57.6636 828.421C57.2272 834.724 58.9222 839.995 62.7062 844.342L62.7188 844.356L62.7187 844.356C66.336 848.625 71.9037 851.123 79.6717 851.661L81.3915 851.78C89.1527 852.318 95.0772 850.618 99.3684 846.887C103.601 843.098 105.955 838.106 106.392 831.795C106.829 825.483 105.186 820.215 101.515 815.879C97.7792 811.592 92.1454 809.092 84.3842 808.555L82.6644 808.436C74.8964 807.898 69.0376 809.605 64.8665 813.335L64.8522 813.348ZM102.605 814.943C106.546 819.594 108.286 825.244 107.826 831.894C107.365 838.544 104.863 843.901 100.319 847.964C95.6605 852.019 89.3182 853.769 81.2923 853.213L79.5725 853.094C71.5466 852.539 65.5633 849.935 61.6227 845.285C57.5674 840.626 55.77 834.972 56.2304 828.322C56.6987 821.557 59.2582 816.205 63.9088 812.264C68.4528 808.201 74.7377 806.447 82.7636 807.003L84.4835 807.122C92.5094 807.677 98.55 810.284 102.605 814.943ZM128.521 833.327C127.92 842.01 125.615 849.74 121.577 856.482C117.529 863.242 111.97 868.417 104.924 871.985C97.8437 875.569 89.5865 877.002 80.2087 876.352L77.457 876.162C68.0792 875.512 60.0981 872.956 53.5798 868.43C47.0922 863.925 42.2991 858.034 39.2215 850.781C36.1518 843.546 34.9338 835.572 35.535 826.889C36.1361 818.206 38.4414 810.476 42.4788 803.734C46.5265 796.974 52.0858 791.799 59.1323 788.231C66.2122 784.647 74.4694 783.214 83.8472 783.864L86.5989 784.054C95.9767 784.703 103.958 787.26 110.476 791.786C116.964 796.291 121.757 802.182 124.834 809.435C127.904 816.67 129.122 824.644 128.521 833.327ZM120.345 855.744C124.253 849.218 126.5 841.712 127.088 833.228C127.675 824.743 126.483 816.999 123.512 809.997C120.541 802.994 115.922 797.317 109.657 792.966C103.391 788.615 95.6722 786.122 86.4997 785.487L83.748 785.297C74.5755 784.662 66.5866 786.067 59.7813 789.513C52.976 792.959 47.6194 797.945 43.7113 804.472C39.8033 810.998 37.5556 818.504 36.9682 826.988C36.3807 835.473 37.5727 843.217 40.544 850.219C43.5153 857.222 48.1338 862.899 54.3992 867.25C60.6647 871.601 68.3837 874.094 77.5562 874.729L80.3079 874.919C89.4804 875.554 97.4693 874.149 104.275 870.703C111.08 867.257 116.437 862.271 120.345 855.744Z" fill="#5A5A5A"/>
<path d="M140.487 716.98L112.632 709.048L62.9779 632.888L60.325 632.133L44.4609 687.843L24.896 682.272L47.2758 603.681L75.1309 611.613L124.785 687.773L127.438 688.528L143.868 630.828L163.433 636.399L140.487 716.98Z" fill="#121212"/>
<path fill-rule="evenodd" clip-rule="evenodd" d="M141.475 718.755L111.721 710.283L62.0676 634.123L61.3131 633.908L45.4489 689.618L23.1206 683.26L46.2873 601.906L76.0408 610.378L125.695 686.538L126.449 686.753L142.88 629.053L165.208 635.411L141.475 718.755ZM127.437 688.528L124.784 687.773L75.1307 611.613L47.2756 603.681L24.8957 682.272L44.4606 687.843L60.3248 632.133L62.9777 632.888L112.631 709.048L140.487 716.98L163.433 636.399L143.868 630.828L127.437 688.528Z" fill="#5A5A5A"/>
<path d="M191.1 575.797C187.637 583.565 182.951 589.844 177.041 594.633C171.131 599.423 164.388 602.268 156.814 603.17C149.239 604.072 141.253 602.651 132.855 598.907L130.336 597.784C121.938 594.04 115.543 589.05 111.151 582.814C106.759 576.577 104.368 569.66 103.98 562.063C103.592 554.466 105.129 546.783 108.592 539.015C112.055 531.247 116.742 524.969 122.652 520.179C128.562 515.39 135.304 512.544 142.879 511.643C150.453 510.741 158.44 512.162 166.837 515.906L169.357 517.029C177.754 520.772 184.149 525.763 188.542 531.999C192.934 538.235 195.324 545.152 195.712 552.75C196.101 560.347 194.563 568.029 191.1 575.797ZM173.465 567.935C176.179 561.847 176.483 555.943 174.378 550.222C172.167 544.455 167.388 539.934 160.04 536.658L158.465 535.956C151.117 532.68 144.612 532.171 138.95 534.429C133.229 536.534 128.989 540.684 126.228 546.877C123.513 552.965 123.262 558.893 125.472 564.66C127.578 570.381 132.305 574.879 139.653 578.155L141.228 578.857C148.576 582.132 155.133 582.665 160.9 580.454C166.563 578.197 170.751 574.024 173.465 567.935Z" fill="#121212"/>
<path fill-rule="evenodd" clip-rule="evenodd" d="M139.463 535.77L139.445 535.777C134.131 537.733 130.161 541.579 127.538 547.462C124.966 553.233 124.75 558.765 126.813 564.146L126.819 564.164L126.819 564.164C128.752 569.415 133.125 573.672 140.237 576.842L141.811 577.544C148.917 580.712 155.065 581.149 160.376 579.116C165.652 577.01 169.576 573.129 172.152 567.35C174.728 561.572 174.992 556.059 173.031 550.727C170.993 545.418 166.559 541.138 159.453 537.97L157.879 537.268C150.767 534.097 144.678 533.691 139.48 535.763L139.463 535.77ZM174.376 550.222C176.482 555.943 176.178 561.847 173.464 567.935C170.75 574.024 166.561 578.197 160.899 580.454C155.132 582.665 148.574 582.132 141.226 578.856L139.652 578.155C132.304 574.879 127.577 570.381 125.471 564.66C123.26 558.893 123.512 552.965 126.226 546.877C128.987 540.684 133.228 536.534 138.948 534.428C144.611 532.171 151.116 532.68 158.464 535.956L160.038 536.658C167.386 539.933 172.166 544.455 174.376 550.222ZM192.411 576.382C188.867 584.332 184.05 590.801 177.944 595.749C171.822 600.71 164.825 603.663 156.982 604.596C149.102 605.534 140.855 604.046 132.269 600.219L129.75 599.096C121.164 595.268 114.545 590.129 109.975 583.641C105.427 577.183 102.946 570.005 102.544 562.136C102.143 554.287 103.735 546.38 107.279 538.43C110.823 530.48 115.64 524.011 121.746 519.063C127.868 514.102 134.865 511.149 142.708 510.216C150.588 509.278 158.835 510.766 167.421 514.593L169.94 515.716C178.526 519.544 185.145 524.684 189.715 531.172C194.263 537.629 196.744 544.807 197.146 552.676C197.547 560.525 195.955 568.432 192.411 576.382ZM177.039 594.633C182.95 589.844 187.636 583.565 191.099 575.797C194.562 568.029 196.099 560.347 195.711 552.749C195.323 545.152 192.933 538.235 188.54 531.999C184.148 525.762 177.753 520.772 169.355 517.029L166.836 515.906C158.438 512.162 150.452 510.741 142.878 511.642C135.303 512.544 128.561 515.39 122.651 520.179C116.741 524.969 112.054 531.247 108.591 539.015C105.128 546.783 103.591 554.466 103.979 562.063C104.367 569.66 106.757 576.577 111.15 582.813C115.542 589.05 121.937 594.04 130.335 597.784L132.854 598.907C141.252 602.65 149.238 604.071 156.812 603.17C164.387 602.268 171.129 599.423 177.039 594.633Z" fill="#5A5A5A"/>
<path d="M243.57 471.203L220.127 454.195L199.619 365.622L197.387 364.002L163.371 410.887L146.905 398.941L194.892 332.8L218.334 349.808L238.842 438.381L241.075 440.001L276.306 391.441L292.772 403.387L243.57 471.203Z" fill="#121212"/>
<path fill-rule="evenodd" clip-rule="evenodd" d="M243.89 473.21L218.849 455.043L198.341 366.469L197.706 366.009L163.69 412.894L144.899 399.26L194.573 330.793L219.614 348.96L240.121 437.534L240.757 437.994L275.987 389.435L294.779 403.068L243.89 473.21ZM241.076 440.001L238.843 438.381L218.335 349.808L194.893 332.8L146.906 398.941L163.371 410.887L197.387 364.002L199.62 365.622L220.128 454.195L243.57 471.203L292.772 403.387L276.307 391.441L241.076 440.001Z" fill="#5A5A5A"/>
<path d="M339.553 355.957C333.635 362.065 327.078 366.355 319.884 368.826C312.689 371.296 305.38 371.656 297.955 369.904C290.531 368.152 283.518 364.077 276.914 357.679L274.933 355.76C268.33 349.362 264.035 342.481 262.049 335.116C260.063 327.751 260.192 320.434 262.434 313.164C264.676 305.895 268.756 299.206 274.674 293.098C280.592 286.99 287.148 282.701 294.343 280.23C301.538 277.759 308.847 277.399 316.271 279.151C323.695 280.903 330.709 284.978 337.312 291.376L339.293 293.296C345.897 299.693 350.191 306.575 352.177 313.94C354.163 321.305 354.035 328.622 351.793 335.891C349.551 343.16 345.471 349.849 339.553 355.957ZM325.685 342.522C330.324 337.734 332.635 332.292 332.62 326.197C332.523 320.021 329.585 314.134 323.807 308.536L322.569 307.337C316.791 301.739 310.855 299.028 304.762 299.206C298.666 299.221 293.259 301.664 288.541 306.534C283.903 311.321 281.632 316.803 281.73 322.978C281.745 329.074 284.642 334.921 290.42 340.519L291.658 341.719C297.436 347.317 303.413 350.067 309.588 349.969C315.681 349.792 321.047 347.309 325.685 342.522Z" fill="#121212"/>
<path fill-rule="evenodd" clip-rule="evenodd" d="M304.787 300.643L304.768 300.643C299.105 300.657 294.057 302.907 289.575 307.533C285.178 312.071 283.077 317.193 283.168 322.956L283.169 322.975L283.169 322.975C283.183 328.57 285.829 334.069 291.421 339.487L292.66 340.687C298.247 346.1 303.872 348.62 309.558 348.533C315.236 348.365 320.254 346.066 324.656 341.522C329.058 336.978 331.198 331.891 331.186 326.21C331.093 320.524 328.397 314.982 322.809 309.568L321.571 308.369C315.979 302.95 310.399 300.479 304.806 300.642L304.787 300.643ZM332.622 326.197C332.638 332.293 330.326 337.734 325.688 342.522C321.049 347.309 315.683 349.792 309.59 349.969C303.415 350.067 297.438 347.317 291.66 341.719L290.422 340.519C284.644 334.921 281.747 329.074 281.732 322.978C281.634 316.803 283.905 311.321 288.543 306.534C293.262 301.664 298.669 299.221 304.764 299.206C310.857 299.028 316.793 301.739 322.571 307.337L323.809 308.536C329.587 314.134 332.525 320.021 332.622 326.197ZM340.587 356.957C334.53 363.208 327.785 367.632 320.352 370.184C312.9 372.744 305.315 373.116 297.628 371.302C289.904 369.479 282.668 365.252 275.917 358.711L273.936 356.792C267.185 350.251 262.73 343.152 260.664 335.49C258.608 327.864 258.741 320.27 261.063 312.741C263.379 305.231 267.588 298.35 273.644 292.099C279.701 285.847 286.445 281.424 293.878 278.871C301.33 276.312 308.916 275.939 316.603 277.753C324.327 279.576 331.563 283.803 338.314 290.345L340.295 292.264C347.046 298.805 351.5 305.904 353.566 313.566C355.623 321.192 355.49 328.785 353.168 336.314C350.851 343.824 346.643 350.705 340.587 356.957ZM319.886 368.826C327.08 366.355 333.637 362.065 339.555 355.957C345.473 349.849 349.553 343.16 351.795 335.891C354.037 328.622 354.165 321.305 352.179 313.94C350.193 306.575 345.899 299.693 339.295 293.296L337.314 291.376C330.711 284.978 323.697 280.904 316.273 279.152C308.849 277.4 301.54 277.759 294.345 280.23C287.15 282.701 280.594 286.99 274.676 293.098C268.758 299.207 264.678 305.895 262.436 313.164C260.194 320.434 260.066 327.751 262.051 335.116C264.037 342.481 268.332 349.362 274.935 355.76L276.916 357.679C283.52 364.077 290.534 368.152 297.958 369.904C305.382 371.656 312.691 371.296 319.886 368.826Z" fill="#5A5A5A"/>
<path d="M424.725 275.716L408.541 251.697L419.669 161.464L418.128 159.176L370.09 191.544L358.723 174.673L426.491 129.012L442.674 153.031L431.547 243.264L433.088 245.552L482.842 212.028L494.209 228.899L424.725 275.716Z" fill="#121212"/>
<path fill-rule="evenodd" clip-rule="evenodd" d="M424.338 277.71L407.052 252.054L418.18 161.821L417.741 161.171L369.703 193.538L356.73 174.285L426.881 127.018L444.168 152.674L433.04 242.907L433.479 243.557L483.232 210.034L496.205 229.287L424.338 277.71ZM433.09 245.552L431.549 243.264L442.676 153.031L426.493 129.012L358.725 174.673L370.092 191.544L418.13 159.176L419.671 161.464L408.543 251.697L424.727 275.716L494.211 228.899L482.844 212.028L433.09 245.552Z" fill="#5A5A5A"/>
<path d="M554.425 200.399C546.77 204.106 539.14 205.886 531.535 205.738C523.929 205.59 516.94 203.42 510.568 199.227C504.195 195.034 499.006 188.8 494.998 180.525L493.796 178.042C489.789 169.767 488.116 161.83 488.778 154.231C489.439 146.632 492.07 139.803 496.67 133.744C501.271 127.685 507.398 122.803 515.052 119.096C522.707 115.389 530.337 113.609 537.943 113.757C545.549 113.905 552.537 116.075 558.91 120.268C565.282 124.461 570.472 130.695 574.479 138.97L575.681 141.453C579.689 149.728 581.362 157.665 580.7 165.265C580.038 172.864 577.407 179.693 572.807 185.751C568.207 191.81 562.079 196.693 554.425 200.399ZM546.009 183.022C552.009 180.116 556.047 175.798 558.125 170.067C560.152 164.233 559.412 157.696 555.906 150.455L555.154 148.903C551.648 141.663 547.003 137.08 541.219 135.157C535.488 133.079 529.571 133.518 523.468 136.474C517.468 139.379 513.455 143.749 511.428 149.583C509.351 155.314 510.065 161.8 513.572 169.04L514.323 170.592C517.829 177.833 522.5 182.467 528.334 184.494C534.118 186.418 540.01 185.927 546.009 183.022Z" fill="#121212"/>
<path fill-rule="evenodd" clip-rule="evenodd" d="M540.746 136.514L540.728 136.507C535.405 134.577 529.89 134.959 524.093 137.767C518.407 140.52 514.676 144.61 512.784 150.054L512.778 150.073L512.778 150.073C510.871 155.333 511.47 161.406 514.864 168.414L515.615 169.966C519.006 176.968 523.425 181.264 528.795 183.134C534.187 184.924 539.689 184.486 545.383 181.728C551.076 178.971 554.832 174.926 556.77 169.586C558.634 164.214 558.003 158.083 554.612 151.081L553.861 149.529C550.467 142.521 546.074 138.286 540.764 136.52L540.746 136.514ZM558.124 170.067C556.047 175.798 552.008 180.116 546.009 183.021C540.009 185.927 534.117 186.418 528.333 184.494C522.499 182.467 517.829 177.833 514.322 170.592L513.571 169.04C510.064 161.799 509.35 155.314 511.427 149.583C513.454 143.749 517.468 139.379 523.467 136.474C529.57 133.518 535.487 133.079 541.218 135.156C547.002 137.08 551.647 141.662 555.154 148.903L555.905 150.455C559.411 157.696 560.151 164.233 558.124 170.067ZM555.05 201.692C547.216 205.486 539.363 207.327 531.506 207.174C523.628 207.021 516.375 204.769 509.777 200.427C503.148 196.065 497.802 189.611 493.705 181.151L492.502 178.668C488.405 170.208 486.657 162.012 487.346 154.106C488.031 146.237 490.761 139.15 495.525 132.875C500.278 126.616 506.592 121.596 514.426 117.803C522.259 114.009 530.112 112.168 537.97 112.321C545.848 112.474 553.101 114.726 559.699 119.068C566.328 123.43 571.674 129.884 575.771 138.344L576.974 140.827C581.071 149.287 582.819 157.483 582.13 165.389C581.445 173.258 578.715 180.345 573.95 186.62C569.198 192.879 562.884 197.899 555.05 201.692ZM531.534 205.738C539.14 205.886 546.77 204.106 554.424 200.399C562.079 196.693 568.206 191.81 572.806 185.751C577.406 179.693 580.037 172.864 580.699 165.264C581.361 157.665 579.688 149.728 575.681 141.453L574.478 138.97C570.471 130.695 565.281 124.461 558.909 120.268C552.537 116.075 545.548 113.905 537.942 113.757C530.336 113.609 522.706 115.389 515.052 119.096C507.397 122.803 501.27 127.685 496.67 133.744C492.069 139.803 489.438 146.631 488.777 154.231C488.115 161.83 489.788 169.767 493.795 178.042L494.998 180.525C499.005 188.8 504.195 195.034 510.567 199.227C516.939 203.42 523.928 205.59 531.534 205.738Z" fill="#5A5A5A"/>
<path d="M661.959 154.253L654.999 126.14L696.411 45.2026L695.749 42.5251L639.521 56.4451L634.632 36.6985L713.953 17.0614L720.913 45.1752L679.501 126.112L680.164 128.79L738.399 114.373L743.288 134.119L661.959 154.253Z" fill="#121212"/>
<path fill-rule="evenodd" clip-rule="evenodd" d="M660.909 155.993L653.475 125.964L694.887 45.0264L694.699 44.2649L638.471 58.1848L632.892 35.6492L715.002 15.3216L722.437 45.3513L681.024 126.288L681.213 127.05L739.448 112.633L745.027 135.169L660.909 155.993ZM680.163 128.79L679.501 126.112L720.913 45.1752L713.953 17.0614L634.632 36.6985L639.521 56.4451L695.748 42.5251L696.411 45.2026L654.998 126.14L661.958 154.253L743.288 134.119L738.399 114.373L680.163 128.79Z" fill="#5A5A5A"/>
<path d="M809.627 128.011C801.165 128.866 793.388 127.92 786.294 125.171C779.201 122.423 773.381 117.986 768.834 111.861C764.288 105.737 761.552 98.1002 760.627 88.9524L760.35 86.2081C759.425 77.0602 760.577 69.0309 763.806 62.1201C767.035 55.2092 771.849 49.6976 778.249 45.5851C784.648 41.4727 792.079 38.9887 800.541 38.1333C809.003 37.2779 816.78 38.2244 823.873 40.9728C830.967 43.7212 836.787 48.1578 841.333 54.2826C845.88 60.4074 848.616 68.0437 849.541 77.1915L849.818 79.9358C850.743 89.0836 849.591 97.113 846.362 104.024C843.133 110.935 838.319 116.446 831.919 120.559C825.519 124.671 818.089 127.155 809.627 128.011ZM807.685 108.8C814.317 108.13 819.592 105.459 823.509 100.789C827.415 96.0048 828.964 89.6104 828.154 81.6061L827.981 79.8908C827.172 71.8865 824.381 65.9885 819.608 62.1969C814.938 58.2794 809.229 56.6617 802.483 57.3437C795.851 58.0142 790.582 60.7417 786.676 65.5261C782.758 70.1963 781.204 76.5335 782.013 84.5378L782.187 86.2531C782.996 94.2574 785.793 100.213 790.577 104.118C795.35 107.91 801.053 109.471 807.685 108.8Z" fill="#121212"/>
<path fill-rule="evenodd" clip-rule="evenodd" d="M818.699 63.3101L818.684 63.2978C814.346 59.6586 809.036 58.1254 802.627 58.7733C796.341 59.4087 791.433 61.9704 787.788 66.4348L787.776 66.4497L787.776 66.4496C784.18 70.7366 782.659 76.6465 783.442 84.3935L783.616 86.1087C784.398 93.849 787.074 99.401 791.478 103C795.927 106.531 801.245 108.007 807.54 107.371C813.834 106.735 818.75 104.224 822.402 99.8733C825.996 95.4663 827.507 89.491 826.725 81.7507L826.551 80.0355C825.768 72.2884 823.095 66.8025 818.714 63.322L818.699 63.3101ZM823.509 100.789C819.591 105.46 814.317 108.13 807.684 108.8C801.052 109.471 795.35 107.91 790.577 104.119C785.792 100.213 782.995 94.2576 782.186 86.2532L782.013 84.538C781.204 76.5337 782.758 70.1964 786.675 65.5263C790.581 60.7418 795.85 58.0144 802.483 57.3439C809.229 56.6619 814.937 58.2796 819.608 62.1971C824.38 65.9887 827.171 71.8867 827.981 79.891L828.154 81.6062C828.963 89.6106 827.415 96.005 823.509 100.789ZM809.771 129.44C801.111 130.316 793.103 129.35 785.775 126.511C778.428 123.664 772.388 119.06 767.68 112.718C762.95 106.346 760.143 98.4496 759.197 89.0971L758.92 86.3527C757.974 77.0002 759.145 68.7018 762.504 61.5121C765.847 54.3563 770.843 48.6362 777.472 44.3767C784.083 40.1281 791.736 37.5796 800.396 36.7042C809.056 35.8287 817.064 36.794 824.392 39.6334C831.739 42.4801 837.779 47.0846 842.487 53.4265C847.217 59.7983 850.024 67.6946 850.97 77.0472L851.247 79.7915C852.193 89.1441 851.022 97.4425 847.663 104.632C844.32 111.788 839.324 117.508 832.695 121.768C826.084 126.016 818.431 128.565 809.771 129.44ZM786.294 125.171C793.387 127.92 801.165 128.866 809.626 128.011C818.088 127.155 825.519 124.671 831.919 120.559C838.318 116.446 843.133 110.935 846.362 104.024C849.59 97.1132 850.743 89.0838 849.818 79.936L849.54 77.1917C848.616 68.0439 845.88 60.4076 841.333 54.2828C836.786 48.158 830.966 43.7214 823.873 40.973C816.78 38.2246 809.002 37.2781 800.541 38.1335C792.079 38.9889 784.648 41.4729 778.248 45.5853C771.849 49.6978 767.034 55.2094 763.805 62.1203C760.576 69.0311 759.424 77.0604 760.349 86.2082L760.627 88.9526C761.551 98.1004 764.287 105.737 768.834 111.861C773.381 117.986 779.201 122.423 786.294 125.171Z" fill="#5A5A5A"/>
<path d="M926.467 121.562L929.576 92.7672L996.245 30.9526L996.541 28.2102L938.95 21.9927L941.134 1.76756L1022.38 10.5387L1019.27 39.3339L952.6 101.148L952.303 103.891L1011.95 110.33L1009.77 130.556L926.467 121.562Z" fill="#121212"/>
<path fill-rule="evenodd" clip-rule="evenodd" d="M924.883 122.836L928.204 92.0789L994.873 30.2644L994.957 29.4844L937.367 23.2669L939.859 0.185045L1023.96 9.26459L1020.64 40.0221L953.969 101.837L953.885 102.617L1013.53 109.056L1011.04 132.138L924.883 122.836ZM952.302 103.891L952.598 101.148L1019.27 39.3339L1022.38 10.5387L941.133 1.76758L938.949 21.9928L996.539 28.2103L996.243 30.9527L929.574 92.7672L926.465 121.562L1009.77 130.556L1011.95 110.33L952.302 103.891Z" fill="#5A5A5A"/>
<path d="M1074.17 147.58C1065.93 145.48 1058.95 141.922 1053.23 136.907C1047.51 131.891 1043.57 125.727 1041.4 118.414C1039.23 111.101 1039.28 102.99 1041.55 94.0799L1042.23 91.407C1044.5 82.4972 1048.34 75.3506 1053.74 69.9672C1059.15 64.5837 1065.56 61.0585 1072.98 59.3916C1080.4 57.7246 1088.23 57.941 1096.48 60.0409C1104.72 62.1408 1111.7 65.6984 1117.42 70.7137C1123.14 75.7291 1127.08 81.8933 1129.25 89.2063C1131.42 96.5193 1131.37 104.631 1129.1 113.541L1128.42 116.213C1126.15 125.123 1122.31 132.27 1116.91 137.653C1111.5 143.037 1105.09 146.562 1097.67 148.229C1090.25 149.896 1082.41 149.679 1074.17 147.58ZM1078.94 128.869C1085.4 130.515 1091.27 129.817 1096.55 126.774C1101.86 123.62 1105.51 118.145 1107.5 110.349L1107.92 108.679C1109.91 100.883 1109.31 94.3849 1106.13 89.1859C1103.09 83.9038 1098.28 80.4257 1091.71 78.7515C1085.25 77.1056 1079.36 77.8596 1074.05 81.0135C1068.77 84.056 1065.14 89.4752 1063.15 97.2713L1062.73 98.9419C1060.74 106.738 1061.32 113.291 1064.48 118.602C1067.66 123.801 1072.48 127.223 1078.94 128.869Z" fill="#121212"/>
<path fill-rule="evenodd" clip-rule="evenodd" d="M1104.89 89.9193L1104.88 89.9027C1102.06 84.9959 1097.6 81.7337 1091.35 80.1434C1085.23 78.5834 1079.74 79.3056 1074.79 82.2485L1074.77 82.2583L1074.77 82.2582C1069.92 85.051 1066.47 90.0803 1064.54 97.6258L1064.12 99.2964C1062.2 106.835 1062.81 112.968 1065.71 117.859C1068.68 122.703 1073.16 125.915 1079.29 127.477C1085.43 129.039 1090.9 128.367 1095.83 125.534C1100.72 122.627 1104.18 117.533 1106.11 109.994L1106.53 108.324C1108.45 100.778 1107.83 94.7082 1104.9 89.9356L1104.89 89.9193ZM1096.55 126.774C1091.27 129.816 1085.4 130.515 1078.94 128.869C1072.48 127.223 1067.66 123.801 1064.48 118.601C1061.32 113.291 1060.74 106.738 1062.73 98.9417L1063.15 97.2711C1065.14 89.475 1068.77 84.0557 1074.05 81.0133C1079.36 77.8594 1085.25 77.1054 1091.71 78.7512C1098.28 80.4254 1103.09 83.9036 1106.13 89.1857C1109.31 94.3847 1109.91 100.882 1107.92 108.678L1107.5 110.349C1105.51 118.145 1101.86 123.62 1096.55 126.774ZM1073.82 148.971C1065.38 146.822 1058.19 143.168 1052.28 137.987C1046.36 132.792 1042.27 126.395 1040.02 118.822C1037.76 111.214 1037.84 102.834 1040.16 93.725L1040.84 91.0521C1043.16 81.9429 1047.11 74.5498 1052.73 68.9492C1058.32 63.3749 1064.98 59.7162 1072.67 57.9896C1080.33 56.2675 1088.4 56.4995 1096.83 58.6485C1105.27 60.7976 1112.46 64.4519 1118.37 69.6334C1124.29 74.828 1128.38 81.2253 1130.63 88.7976C1132.89 96.4056 1132.81 104.786 1130.49 113.895L1129.81 116.568C1127.49 125.677 1123.54 133.07 1117.92 138.671C1112.33 144.245 1105.67 147.904 1097.98 149.63C1090.32 151.353 1082.25 151.121 1073.82 148.971ZM1053.23 136.906C1058.95 141.922 1065.93 145.479 1074.17 147.579C1082.41 149.679 1090.25 149.896 1097.67 148.229C1105.09 146.562 1111.5 143.036 1116.91 137.653C1122.31 132.27 1126.15 125.123 1128.42 116.213L1129.1 113.54C1131.37 104.631 1131.42 96.5191 1129.25 89.2061C1127.08 81.8931 1123.14 75.7289 1117.42 70.7135C1111.7 65.6982 1104.72 62.1405 1096.48 60.0407C1088.24 57.9408 1080.4 57.7244 1072.98 59.3914C1065.56 61.0583 1059.15 64.5835 1053.74 69.9669C1048.34 75.3504 1044.5 82.497 1042.23 91.4068L1041.55 94.0797C1039.28 102.989 1039.23 111.101 1041.4 118.414C1043.57 125.727 1047.51 131.891 1053.23 136.906Z" fill="#5A5A5A"/>
<path d="M1186.13 181.612L1198.93 155.632L1282.76 120.445L1283.98 117.971L1232.02 92.3704L1241.01 74.1223L1314.31 110.237L1301.51 136.217L1217.68 171.404L1216.46 173.878L1270.28 200.393L1261.29 218.641L1186.13 181.612Z" fill="#121212"/>
<path fill-rule="evenodd" clip-rule="evenodd" d="M1184.21 182.266L1197.88 154.515L1281.71 119.328L1282.06 118.625L1230.1 93.0245L1240.36 72.1989L1316.24 109.583L1302.57 137.334L1218.73 172.521L1218.39 173.225L1272.2 199.739L1261.94 220.565L1184.21 182.266ZM1216.46 173.879L1217.68 171.404L1301.51 136.217L1314.31 110.237L1241.01 74.1226L1232.02 92.3707L1283.98 117.971L1282.76 120.445L1198.93 155.632L1186.13 181.613L1261.29 218.641L1270.28 200.393L1216.46 173.879Z" fill="#5A5A5A"/>
<path d="M1315.95 256.731C1308.92 251.931 1303.59 246.194 1299.94 239.52C1296.29 232.847 1294.7 225.704 1295.17 218.09C1295.64 210.477 1298.47 202.875 1303.66 195.285L1305.22 193.008C1310.4 185.418 1316.46 180.022 1323.38 176.82C1330.31 173.617 1337.54 172.506 1345.08 173.487C1352.63 174.468 1359.91 177.359 1366.93 182.159C1373.95 186.959 1379.29 192.696 1382.94 199.369C1386.59 206.043 1388.18 213.186 1387.71 220.8C1387.24 228.413 1384.41 236.015 1379.22 243.605L1377.66 245.882C1372.47 253.472 1366.42 258.868 1359.49 262.07C1352.57 265.273 1345.34 266.383 1337.79 265.402C1330.25 264.421 1322.97 261.531 1315.95 256.731ZM1326.84 240.792C1332.35 244.554 1338.1 245.913 1344.11 244.867C1350.18 243.727 1355.48 239.836 1360.02 233.195L1360.99 231.772C1365.54 225.13 1367.2 218.822 1366 212.847C1364.95 206.841 1361.63 201.925 1356.03 198.098C1350.53 194.336 1344.74 193.025 1338.67 194.165C1332.67 195.21 1327.4 199.054 1322.85 205.695L1321.88 207.118C1317.34 213.759 1315.64 220.115 1316.78 226.185C1317.99 232.161 1321.34 237.029 1326.84 240.792Z" fill="#121212"/>
<path fill-rule="evenodd" clip-rule="evenodd" d="M1364.59 213.112L1364.58 213.093C1363.61 207.514 1360.54 202.919 1355.22 199.284C1350.01 195.718 1344.6 194.513 1338.94 195.577L1338.92 195.58L1338.92 195.58C1333.41 196.54 1328.44 200.078 1324.04 206.506L1323.07 207.929C1318.68 214.351 1317.14 220.321 1318.19 225.91C1319.32 231.478 1322.43 236.035 1327.65 239.606C1332.88 243.176 1338.25 244.425 1343.85 243.453C1349.44 242.4 1354.44 238.806 1358.84 232.384L1359.81 230.961C1364.2 224.533 1365.7 218.616 1364.59 213.131L1364.59 213.112ZM1344.11 244.867C1338.1 245.912 1332.35 244.554 1326.84 240.791C1321.34 237.029 1317.99 232.16 1316.78 226.185C1315.64 220.115 1317.34 213.759 1321.88 207.118L1322.85 205.695C1327.4 199.053 1332.67 195.21 1338.67 194.165C1344.74 193.024 1350.53 194.335 1356.03 198.098C1361.63 201.925 1364.95 206.841 1366 212.846C1367.2 218.822 1365.54 225.13 1360.99 231.771L1360.02 233.194C1355.48 239.836 1350.18 243.726 1344.11 244.867ZM1315.13 257.916C1307.95 253.004 1302.45 247.104 1298.68 240.21C1294.89 233.298 1293.24 225.884 1293.73 218.001C1294.22 210.081 1297.17 202.234 1302.47 194.474L1304.03 192.197C1309.33 184.437 1315.58 178.847 1322.78 175.515C1329.95 172.2 1337.46 171.046 1345.27 172.062C1353.06 173.076 1360.56 176.06 1367.74 180.973C1374.93 185.885 1380.43 191.785 1384.2 198.679C1387.98 205.591 1389.63 213.005 1389.14 220.888C1388.65 228.809 1385.71 236.655 1380.4 244.415L1378.85 246.692C1373.54 254.452 1367.3 260.042 1360.1 263.374C1352.93 266.69 1345.42 267.843 1337.61 266.827C1329.81 265.813 1322.32 262.829 1315.13 257.916ZM1299.94 239.52C1303.59 246.194 1308.92 251.93 1315.95 256.73C1322.97 261.531 1330.25 264.421 1337.79 265.402C1345.34 266.383 1352.57 265.272 1359.49 262.07C1366.42 258.867 1372.47 253.471 1377.66 245.881L1379.22 243.604C1384.41 236.014 1387.24 228.413 1387.71 220.799C1388.18 213.186 1386.59 206.043 1382.94 199.369C1379.29 192.696 1373.95 186.959 1366.93 182.159C1359.91 177.359 1352.63 174.468 1345.08 173.487C1337.54 172.506 1330.31 173.617 1323.38 176.819C1316.46 180.022 1310.4 185.418 1305.22 193.008L1303.66 195.285C1298.47 202.875 1295.64 210.477 1295.17 218.09C1294.7 225.703 1296.29 232.847 1299.94 239.52Z" fill="#5A5A5A"/>
<path d="M1409.43 327.111L1430.37 307.1L1521.18 302.813L1523.18 300.907L1483.16 259.032L1497.86 244.977L1554.32 304.05L1533.38 324.061L1442.57 328.348L1440.58 330.254L1482.03 373.624L1467.32 387.68L1409.43 327.111Z" fill="#121212"/>
<path fill-rule="evenodd" clip-rule="evenodd" d="M1407.4 327.065L1429.76 305.69L1520.58 301.403L1521.15 300.861L1481.12 258.987L1497.91 242.946L1556.35 304.096L1533.99 325.471L1443.17 329.758L1442.61 330.3L1484.06 373.67L1467.27 389.711L1407.4 327.065ZM1440.57 330.254L1442.57 328.348L1533.38 324.061L1554.32 304.05L1497.86 244.977L1483.15 259.033L1523.18 300.907L1521.18 302.813L1430.37 307.1L1409.43 327.111L1467.32 387.68L1482.03 373.624L1440.57 330.254Z" fill="#5A5A5A"/>
<path d="M1505.59 442.21C1500.64 435.292 1497.6 428.073 1496.46 420.552C1495.32 413.031 1496.28 405.775 1499.33 398.786C1502.39 391.797 1507.65 385.628 1515.13 380.279L1517.38 378.674C1524.85 373.326 1532.39 370.335 1540 369.702C1547.6 369.07 1554.77 370.508 1561.52 374.018C1568.27 377.528 1574.12 382.742 1579.07 389.659C1584.01 396.577 1587.06 403.796 1588.2 411.318C1589.34 418.839 1588.38 426.094 1585.33 433.083C1582.27 440.073 1577 446.242 1569.53 451.59L1567.28 453.195C1559.8 458.544 1552.26 461.534 1544.66 462.167C1537.06 462.799 1529.88 461.361 1523.13 457.851C1516.39 454.342 1510.54 449.128 1505.59 442.21ZM1521.3 430.978C1525.17 436.4 1530.11 439.65 1536.11 440.729C1542.2 441.74 1548.52 439.906 1555.07 435.226L1556.47 434.223C1563.01 429.543 1566.74 424.19 1567.66 418.164C1568.74 412.164 1567.31 406.407 1563.36 400.892C1559.48 395.47 1554.5 392.253 1548.41 391.241C1542.41 390.162 1536.13 391.963 1529.59 396.643L1528.19 397.646C1521.65 402.326 1517.87 407.713 1516.86 413.806C1515.94 419.832 1517.42 425.556 1521.3 430.978Z" fill="#121212"/>
<path fill-rule="evenodd" clip-rule="evenodd" d="M1566.25 417.929L1566.25 417.91C1567.25 412.337 1565.94 406.966 1562.19 401.727C1558.52 396.588 1553.86 393.602 1548.17 392.658L1548.15 392.655L1548.15 392.655C1542.65 391.665 1536.76 393.282 1530.43 397.812L1529.03 398.815C1522.7 403.341 1519.21 408.422 1518.28 414.032C1517.42 419.648 1518.78 424.996 1522.46 430.142C1526.15 435.288 1530.77 438.306 1536.36 439.313C1541.97 440.242 1547.9 438.583 1554.23 434.058L1555.63 433.055C1561.97 428.525 1565.4 423.479 1566.24 417.948L1566.25 417.929ZM1536.11 440.729C1530.11 439.65 1525.17 436.4 1521.3 430.978C1517.42 425.556 1515.94 419.832 1516.86 413.806C1517.87 407.713 1521.65 402.326 1528.19 397.646L1529.59 396.643C1536.14 391.963 1542.41 390.163 1548.41 391.241C1554.5 392.253 1559.49 395.47 1563.36 400.892C1567.31 406.407 1568.74 412.165 1567.66 418.164C1566.74 424.19 1563.01 429.543 1556.47 434.223L1555.07 435.226C1548.52 439.906 1542.21 441.74 1536.11 440.729ZM1504.42 443.046C1499.36 435.966 1496.22 428.537 1495.04 420.767C1493.86 412.977 1494.85 405.448 1498.02 398.211C1501.19 390.939 1506.65 384.579 1514.3 379.11L1516.54 377.506C1524.19 372.037 1531.97 368.929 1539.88 368.271C1547.75 367.616 1555.2 369.109 1562.19 372.744C1569.16 376.37 1575.17 381.744 1580.24 388.824C1585.3 395.903 1588.44 403.332 1589.62 411.102C1590.8 418.893 1589.81 426.422 1586.64 433.659C1583.46 440.93 1578.01 447.291 1570.36 452.759L1568.12 454.364C1560.47 459.832 1552.69 462.941 1544.78 463.599C1536.91 464.254 1529.46 462.761 1522.47 459.126C1515.5 455.5 1509.49 450.126 1504.42 443.046ZM1496.46 420.552C1497.6 428.073 1500.64 435.293 1505.59 442.21C1510.54 449.128 1516.39 454.342 1523.14 457.851C1529.89 461.361 1537.06 462.8 1544.66 462.167C1552.26 461.535 1559.8 458.544 1567.28 453.195L1569.53 451.591C1577 446.242 1582.27 440.073 1585.33 433.084C1588.38 426.094 1589.34 418.839 1588.2 411.318C1587.06 403.797 1584.02 396.577 1579.07 389.659C1574.12 382.742 1568.27 377.528 1561.52 374.018C1554.77 370.509 1547.6 369.07 1540 369.703C1532.4 370.335 1524.86 373.326 1517.38 378.674L1515.13 380.279C1507.65 385.628 1502.39 391.797 1499.33 398.786C1496.28 405.775 1495.32 413.031 1496.46 420.552Z" fill="#5A5A5A"/>
</g>
<defs>
<clipPath id="clip0_259_1059">
<rect width="1771.31" height="1771.31" fill="white"/>
</clipPath>
</defs>
</svg>
