<svg width="24" height="24" viewBox="0 0 24 24" fill="none" xmlns="http://www.w3.org/2000/svg">
<path fill-rule="evenodd" clip-rule="evenodd" d="M12 2C6.47715 2 2 6.47715 2 12C2 17.5228 6.47715 22 12 22C17.5228 22 22 17.5228 22 12C22 6.47715 17.5228 2 12 2ZM13 6C13 5.44772 12.5523 5 12 5C11.4477 5 11 5.44772 11 6V6.5H10.5C9.11929 6.5 8 7.61929 8 9C8 10.3807 9.11929 11.5 10.5 11.5H13.5C13.7761 11.5 14 11.7239 14 12C14 12.2761 13.7761 12.5 13.5 12.5H9C8.44772 12.5 8 12.9477 8 13.5C8 14.0523 8.44772 14.5 9 14.5H11V15C11 15.5523 11.4477 16 12 16C12.5523 16 13 15.5523 13 15V14.5H13.5C14.8807 14.5 16 13.3807 16 12C16 10.6193 14.8807 9.5 13.5 9.5H10.5C10.2239 9.5 10 9.27614 10 9C10 8.72386 10.2239 8.5 10.5 8.5H15C15.5523 8.5 16 8.05228 16 7.5C16 6.94772 15.5523 6.5 15 6.5H13V6Z" fill="white"/>
</svg>
