<svg width="24" height="24" viewBox="0 0 24 24" fill="none" xmlns="http://www.w3.org/2000/svg">
  <path d="M19 4H18V3C18 2.44772 17.5523 2 17 2C16.4477 2 16 2.44772 16 3V4H8V3C8 2.44772 7.55228 2 7 2C6.44772 2 6 2.44772 6 3V4H5C3.34315 4 2 5.34315 2 7V19C2 20.6569 3.34315 22 5 22H19C20.6569 22 22 20.6569 22 19V7C22 5.34315 20.6569 4 19 4Z" fill="white"/>
  <path d="M2 10H22" stroke="#111111" stroke-width="1.5"/>
  <path d="M8.5 15.5L10.5 17.5L15.5 13" stroke="#111111" stroke-width="2" stroke-linecap="round" stroke-linejoin="round"/>
</svg>
