<svg width="24" height="24" viewBox="0 0 24 24" fill="none" xmlns="http://www.w3.org/2000/svg">
<g clip-path="url(#clip0_1869_5022)">
<path fill-rule="evenodd" clip-rule="evenodd" d="M7.36754 0.102635C7.87076 -0.0651024 8.41999 -0.0260695 8.89443 0.211147L16.1535 3.84066L21.3675 2.10264C21.9774 1.89934 22.6479 2.00161 23.1694 2.37752C23.691 2.75342 24 3.35712 24 4V20C24 20.8609 23.4491 21.6251 22.6325 21.8974L16.6325 23.8974C16.1292 24.0651 15.58 24.0261 15.1056 23.7889L7.84654 20.1593L2.63246 21.8974C2.02256 22.1007 1.35212 21.9984 0.830579 21.6225C0.309042 21.2466 0 20.6429 0 20V4C0 3.13914 0.55086 2.37486 1.36754 2.10264L7.36754 0.102635ZM10 16.7639L14 18.7639V7.23607L10 5.23607V16.7639ZM6 4.77485V16.5585L4 17.2251V5.44152L6 4.77485ZM18 7.44152V19.2251L20 18.5585V6.77485L18 7.44152Z" fill="white" fill-opacity="0.44"/>
</g>
<defs>
<clipPath id="clip0_1869_5022">
<rect width="24" height="24" fill="white"/>
</clipPath>
</defs>
</svg>
