<svg width="24" height="24" viewBox="0 0 24 24" fill="none" xmlns="http://www.w3.org/2000/svg">
<path d="M2.00008 11.7695V7.5752C2.00008 6.71109 1.99102 5.78627 2.16317 4.93945C2.35991 3.97179 2.77366 3.14427 3.48153 2.33398L3.72176 2.07031C4.28629 1.47562 4.88264 1.03244 5.60848 0.738281C6.34964 0.437945 7.12843 0.345228 7.73739 0.262695C8.90453 0.104516 10.3132 0 12.0001 0C13.495 1.15777e-07 14.7854 0.0905235 15.8858 0.230469L16.4464 0.303711C17.0242 0.383007 17.645 0.490575 18.2286 0.706055C19.114 1.03301 19.8259 1.55967 20.502 2.32715L20.7784 2.66309C21.8943 4.12003 21.9935 5.61941 22.0001 7.19434V11.7695C22 15.3982 20.338 18.1263 18.5001 20.0107C16.9096 21.6414 15.1316 22.7051 13.9893 23.2881L13.5411 23.5088C13.3416 23.6034 12.8864 23.8469 12.2725 23.9062L12.0001 23.9189C11.4367 23.9189 10.9799 23.7488 10.6905 23.6182L10.4591 23.5088C9.38051 22.9973 7.3176 21.8743 5.50008 20.0107C3.6622 18.1263 2.00017 15.3982 2.00008 11.7695ZM6.00008 11.7695C6.00017 14.0697 7.02768 15.8482 8.36336 17.2178C9.63283 18.5194 11.1125 19.3711 12.0001 19.8086C12.8876 19.3711 14.3673 18.5194 15.6368 17.2178C16.9725 15.8482 18 14.0697 18.0001 11.7695V7.92676C18.0001 6.81301 17.9922 6.23845 17.9093 5.7959C17.8566 5.51504 17.7786 5.31646 17.589 5.07715L17.5011 4.97168C17.1791 4.60616 16.9967 4.51582 16.8429 4.45898C16.5815 4.36248 16.2399 4.30748 15.3809 4.19824C14.4543 4.0804 13.3328 4 12.0001 4C10.4774 4 9.24885 4.09354 8.2745 4.22559C7.52983 4.32651 7.29297 4.37134 7.11043 4.44531C7.03966 4.474 6.92537 4.52685 6.72469 4.7207L6.49422 4.96582C6.21447 5.28604 6.13326 5.4896 6.08309 5.73633C6.00841 6.10365 6.00009 6.5763 6.00008 7.5752V11.7695Z" fill="white"/>
</svg>
