<svg width="24" height="24" viewBox="0 0 24 24" fill="none" xmlns="http://www.w3.org/2000/svg">
<path fill-rule="evenodd" clip-rule="evenodd" d="M12 15C13.6568 15 15 16.3432 15 18C15 19.6568 13.6568 21 12 21C10.3431 21 8.99997 19.6569 8.99997 18C8.99997 16.3431 10.3431 15 12 15ZM12 9C13.9475 9.00001 15.54 9.64817 16.6172 10.2637C17.1598 10.5738 17.5891 10.8855 17.8896 11.126C18.0405 11.2467 18.1614 11.3505 18.249 11.4297C18.2928 11.4693 18.3288 11.503 18.3564 11.5293C18.3701 11.5424 18.3819 11.5541 18.3916 11.5635C18.3963 11.5681 18.4005 11.5725 18.4043 11.5762C18.4061 11.578 18.4085 11.5794 18.4101 11.5811C18.4109 11.5818 18.4114 11.5833 18.4121 11.584L18.4131 11.585C18.4106 11.5883 18.3531 11.6468 17.1914 12.8086L18.414 11.5859C19.195 12.367 19.195 13.633 18.414 14.4141C17.6818 15.1463 16.5228 15.1925 15.7373 14.5518L15.5927 14.4209L15.5976 14.4258C15.5945 14.4228 15.584 14.4135 15.5674 14.3984C15.5339 14.3682 15.4749 14.3157 15.3916 14.249C15.2234 14.1145 14.965 13.9262 14.6328 13.7363C13.9599 13.3518 13.0524 13 12 13C10.9476 13 10.04 13.3518 9.36716 13.7363C9.03491 13.9262 8.77654 14.1145 8.60837 14.249C8.52503 14.3157 8.46605 14.3682 8.43259 14.3984C8.41596 14.4135 8.4055 14.4228 8.40232 14.4258L8.41013 14.418L8.26267 14.5518C7.47713 15.1925 6.31818 15.1463 5.58591 14.4141C4.80486 13.633 4.80486 12.367 5.58591 11.5859L6.80857 12.8086C5.64978 11.6497 5.58958 11.5886 5.58689 11.585L5.58786 11.584C5.58856 11.5833 5.58905 11.5818 5.58982 11.5811C5.59144 11.5794 5.59381 11.578 5.59568 11.5762C5.59942 11.5725 5.60363 11.5681 5.60837 11.5635C5.61801 11.5541 5.62981 11.5424 5.64353 11.5293C5.67113 11.503 5.70712 11.4693 5.75095 11.4297C5.83858 11.3505 5.95944 11.2467 6.11032 11.126C6.4109 10.8855 6.84015 10.5737 7.38279 10.2637C8.45992 9.64817 10.0524 9 12 9ZM12 3C15.2263 3.00001 17.5722 3.85188 19.1504 4.77246C19.9327 5.22884 20.514 5.69474 20.9131 6.06445C21.1124 6.24918 21.267 6.41057 21.3789 6.53516C21.4348 6.59739 21.4804 6.65075 21.5156 6.69336C21.5331 6.71457 21.548 6.73325 21.5605 6.74902C21.5667 6.7568 21.5722 6.76412 21.5771 6.77051C21.5796 6.77374 21.5827 6.77741 21.5849 6.78027L21.5879 6.78418L21.5898 6.78613C21.5898 6.78613 21.5554 6.81495 20.1513 7.88477L21.5908 6.78809C22.2601 7.66668 22.0904 8.92143 21.2119 9.59082C20.3885 10.2181 19.2346 10.1086 18.542 9.36914L18.414 9.21875C18.4156 9.22078 18.4176 9.22289 18.4189 9.22461C18.4216 9.22806 18.424 9.23119 18.4258 9.2334C18.4284 9.23669 18.4306 9.23926 18.4306 9.23926C18.4306 9.23926 18.4199 9.22659 18.4023 9.20703C18.3669 9.16757 18.2981 9.09421 18.1943 8.99805C17.9862 8.80528 17.6379 8.52108 17.1347 8.22754C16.1415 7.6482 14.4876 7.00001 12 7C9.51238 7 7.85847 7.6482 6.86521 8.22754C6.36201 8.52107 6.01373 8.80527 5.80564 8.99805C5.70185 9.0942 5.63309 9.16756 5.59763 9.20703C5.58052 9.22608 5.56986 9.23861 5.56931 9.23926C5.56956 9.23898 5.57173 9.23651 5.57419 9.2334C5.57594 9.23119 5.57835 9.22806 5.58103 9.22461C5.58237 9.22289 5.58435 9.22078 5.58591 9.21875L5.58786 9.21582L5.58982 9.21387L5.58884 9.21289C4.91918 10.0902 3.66617 10.2598 2.78806 9.59082C1.90948 8.92143 1.73981 7.66669 2.40915 6.78809L3.84861 7.88477C2.46714 6.83213 2.41156 6.7873 2.41013 6.78613L2.41208 6.78418L2.41501 6.78027C2.41722 6.77741 2.42031 6.77374 2.42282 6.77051C2.42779 6.76412 2.43326 6.7568 2.43943 6.74902C2.45193 6.73325 2.46685 6.71456 2.48435 6.69336C2.51952 6.65075 2.5652 6.59738 2.62107 6.53516C2.73295 6.41057 2.88752 6.24918 3.08689 6.06445C3.48595 5.69473 4.06723 5.22883 4.84958 4.77246C6.42778 3.85188 8.77367 3 12 3Z" fill="white"/>
</svg>
