<svg xmlns="http://www.w3.org/2000/svg" width="512" height="512" fill="none" viewBox="0 0 512 512"><rect width="512" height="512" fill="#1FE4FF"/><g clip-path="url(#clip0_3789_16)"><path d="M170 186C170 184.615 169.052 183.411 167.707 183.084L152.75 179.459C142.169 176.894 132.466 186.1 134.473 196.801L141.216 232.764C142.546 239.859 148.741 245 155.959 245H167C168.657 245 170 243.657 170 242V186Z" fill="#FC6736" stroke="#121212" stroke-width="6" stroke-linecap="round" stroke-linejoin="round"/><path d="M342 186C342 184.615 342.948 183.411 344.293 183.084L359.25 179.459C369.831 176.894 379.534 186.1 377.527 196.801L370.784 232.764C369.454 239.859 363.259 245 356.041 245H345C343.343 245 342 243.657 342 242V186Z" fill="#FC6736" stroke="#121212" stroke-width="6" stroke-linecap="round" stroke-linejoin="round"/><mask id="path-3-outside-1_3789_16" maskUnits="userSpaceOnUse" x="26" y="324" width="460" height="194" fill="black"><rect fill="white" x="26" y="324" width="460" height="194"/><path fill-rule="evenodd" clip-rule="evenodd" d="M305 330H207V400H160.551C114.08 400 90.8442 400 73.7348 412.906C56.6253 425.811 50.2421 448.153 37.4755 492.836L32 512H480L474.524 492.836C461.758 448.153 455.375 425.811 438.265 412.906C421.156 400 397.92 400 351.449 400H305V330Z"/></mask><path fill-rule="evenodd" clip-rule="evenodd" d="M305 330H207V400H160.551C114.08 400 90.8442 400 73.7348 412.906C56.6253 425.811 50.2421 448.153 37.4755 492.836L32 512H480L474.524 492.836C461.758 448.153 455.375 425.811 438.265 412.906C421.156 400 397.92 400 351.449 400H305V330Z" fill="#FC6736"/><path d="M207 330V324C203.686 324 201 326.686 201 330H207ZM305 330H311C311 326.686 308.314 324 305 324V330ZM207 400V406C210.314 406 213 403.314 213 400H207ZM73.7348 412.906L77.348 417.696L73.7348 412.906ZM37.4755 492.836L31.7064 491.187H31.7064L37.4755 492.836ZM32 512L26.2309 510.352C25.7136 512.162 26.0761 514.11 27.2099 515.613C28.3437 517.116 30.1173 518 32 518V512ZM480 512V518C481.883 518 483.656 517.116 484.79 515.613C485.924 514.11 486.286 512.162 485.769 510.352L480 512ZM474.524 492.836L468.755 494.484L474.524 492.836ZM438.265 412.906L441.878 408.116H441.878L438.265 412.906ZM305 400H299C299 403.314 301.686 406 305 406V400ZM207 336H305V324H207V336ZM213 400V330H201V400H213ZM160.551 406H207V394H160.551V406ZM77.348 417.696C84.7403 412.12 93.6618 409.117 106.831 407.572C120.157 406.01 137.172 406 160.551 406V394C137.458 394 119.62 393.99 105.433 395.654C91.0896 397.336 79.8387 400.786 70.1216 408.116L77.348 417.696ZM43.2447 494.484C49.6671 472.005 54.3507 455.648 59.5144 443.263C64.6172 431.025 69.9556 423.272 77.348 417.696L70.1216 408.116C60.4045 415.445 53.9965 425.316 48.4387 438.645C42.9418 451.829 38.0504 468.983 31.7064 491.187L43.2447 494.484ZM37.7691 513.648L43.2447 494.484L31.7064 491.187L26.2309 510.352L37.7691 513.648ZM480 506H32V518H480V506ZM468.755 494.484L474.231 513.648L485.769 510.352L480.294 491.187L468.755 494.484ZM434.652 417.696C442.044 423.272 447.383 431.025 452.486 443.263C457.649 455.648 462.333 472.005 468.755 494.484L480.294 491.187C473.95 468.983 469.058 451.829 463.561 438.645C458.003 425.316 451.595 415.445 441.878 408.116L434.652 417.696ZM351.449 406C374.828 406 391.843 406.01 405.169 407.572C418.338 409.117 427.26 412.12 434.652 417.696L441.878 408.116C432.161 400.786 420.91 397.336 406.567 395.654C392.38 393.99 374.542 394 351.449 394V406ZM305 406H351.449V394H305V406ZM299 330V400H311V330H299Z" fill="#121212" mask="url(#path-3-outside-1_3789_16)"/><path d="M256 87C204.638 87 163 128.638 163 180V267.868L163 268.389C163 279.226 162.999 285.272 164.563 290.912C165.824 295.462 167.826 299.772 170.488 303.671C173.789 308.504 178.408 312.405 186.688 319.397L187.086 319.733L187.187 319.818C199.277 330.027 208.482 337.8 216.376 343.473C224.324 349.186 231.123 352.906 238.451 354.894C249.942 358.013 262.058 358.013 273.549 354.894C280.877 352.906 287.676 349.186 295.624 343.473C303.518 337.8 312.723 330.027 324.812 319.818L324.914 319.733L325.312 319.396C333.592 312.405 338.212 308.504 341.512 303.671C344.174 299.772 346.176 295.462 347.437 290.912C349.001 285.272 349 279.226 349 268.389V267.868V180C349 128.638 307.362 87 256 87Z" fill="#FC6736" stroke="#121212" stroke-width="6" stroke-linecap="round" stroke-linejoin="round"/><path d="M256 218L263.515 248.06C264.777 253.109 260.958 258 255.754 258H246" stroke="#121212" stroke-width="6" stroke-linecap="round" stroke-linejoin="round"/></g><defs><clipPath id="clip0_3789_16"><rect width="512" height="512" fill="white"/></clipPath></defs><rect x="213" y="190" width="18" height="18" rx="9" fill="#FF2820" stroke="#121212" stroke-width="6" stroke-linecap="round" stroke-linejoin="round"/><rect x="281" y="190" width="18" height="18" rx="9" fill="#FF2820" stroke="#121212" stroke-width="6" stroke-linecap="round" stroke-linejoin="round"/><path d="M208.144 160C208.144 160 227.288 185.097 235.856 176C238.269 173.439 240 168 240 168" stroke="#121212" stroke-width="6" stroke-linecap="round" stroke-linejoin="round"/><path d="M308.894 159.794C308.894 159.794 289.749 184.891 281.181 175.794C278.768 173.233 277.037 167.794 277.037 167.794" stroke="#121212" stroke-width="6" stroke-linecap="round" stroke-linejoin="round"/><g clip-path="url(#clip0_3720_218)"><path d="M400.5 288C409 251 468.5 46.5001 343.637 99.5237C343.637 99.5237 297.637 121.874 346 115.5C394.363 109.126 365.948 174.12 343.637 245.5C290.5 415.5 427 424.5 427 424.5C427 424.5 386.723 347.97 400.5 288Z" fill="#FFE3AB" stroke="#121212" stroke-width="6" stroke-linejoin="round"/><path d="M427.451 423.757C427.451 423.757 387.174 347.227 400.951 287.257C404.904 263.757 416.904 224.757 413.404 215.257C406.165 195.607 372.404 249.757 372.404 249.757C372.404 249.757 368.211 232.856 360.904 233.257C351.872 233.753 346.11 238.287 344.088 244.757C290.951 414.757 427.451 423.757 427.451 423.757Z" fill="#1FE4FF" stroke="#121212" stroke-width="6" stroke-linejoin="round"/><path d="M111.814 287.848C103.314 250.848 43.8137 46.3482 168.677 99.3718C168.677 99.3718 214.677 121.722 166.314 115.348C117.951 108.974 146.366 173.968 168.677 245.348C221.814 415.348 85.3137 424.348 85.3137 424.348C85.3137 424.348 125.591 347.818 111.814 287.848Z" fill="#FFE3AB" stroke="#121212" stroke-width="6" stroke-linejoin="round"/><path d="M348 133L328 104.5C328 104.5 339.093 93.1563 348 95.5001C357.142 97.9057 360.607 112.047 360.5 121.5C360.384 131.72 348 133 348 133Z" fill="#1FE4FF" stroke="#121212" stroke-width="6" stroke-linejoin="round"/><path d="M164.314 132.848L184.314 104.348C184.314 104.348 173.221 93.0044 164.314 95.3482C155.171 97.7538 151.707 111.895 151.814 121.348C151.929 131.568 164.314 132.848 164.314 132.848Z" fill="#FF00B1" stroke="#121212" stroke-width="6" stroke-linejoin="round"/><path d="M154 163.338C161 117.176 185 71.5 254.002 71.5C309.5 71.5 351.498 98.1621 358.5 161C365.502 223.838 344.5 233.5 344.5 233.5C338.5 145.5 282 108.5 254.002 133C234.5 117.5 178 114 163 233.5C163 233.5 147 209.5 154 163.338Z" fill="#FFE3AB"/><path d="M254.002 71.5C185 71.5 161 117.176 154 163.338C147 209.5 163 233.5 163 233.5C178 114 234.5 117.5 254.002 133M254.002 71.5C309.5 71.5 351.498 98.1621 358.5 161C365.502 223.838 344.5 233.5 344.5 233.5C338.5 145.5 282 108.5 254.002 133M254.002 71.5V133" stroke="#121212" stroke-width="6" stroke-linejoin="round"/><path d="M84.4535 424.5C84.4535 424.5 124.73 347.97 110.953 288C107 264.5 95 225.5 98.5 216C105.74 196.35 139.5 250.5 139.5 250.5C139.5 250.5 143.694 233.599 151 234C160.032 234.496 165.794 239.03 167.816 245.5C220.953 415.5 84.4535 424.5 84.4535 424.5Z" fill="#FF00B1" stroke="#121212" stroke-width="6" stroke-linejoin="round"/><path d="M197 166.565C197 124.065 236.667 128.565 255.5 133.565C209 88.5655 163.5 128.5 163.5 183C163.5 240.866 168 251 147.5 295C209.5 266.5 197 201.565 197 166.565Z" fill="#FFE3AB" stroke="#121212" stroke-width="6" stroke-linejoin="round"/><path d="M315.5 166.469C315.5 123.969 275.833 128.469 257 133.469C303.5 88.4693 349 128.404 349 182.904C349 240.77 344.5 250.904 365 294.904C303 266.404 315.5 201.469 315.5 166.469Z" fill="#FFE3AB" stroke="#121212" stroke-width="6" stroke-linejoin="round"/></g><defs><clipPath id="clip0_3720_218"><rect width="512" height="512" fill="white"/></clipPath></defs><path d="M345.5 276C345.5 263.5 347.5 253.5 359.5 253.5C371.5 253.5 374 268 374 276C374 289 358 296.5 358 296.5C358 296.5 345.5 288.5 345.5 276Z" fill="#3EFF1F"/><path d="M359.5 238C359.5 238 359.5 247.447 359.5 253.5M359.5 276.5L354 281.5M359.5 276.5L365 281.5M359.5 276.5C359.5 276.5 359.5 270.114 359.5 263.5M359.5 253.5C347.5 253.5 345.5 263.5 345.5 276C345.5 288.5 358 296.5 358 296.5C358 296.5 374 289 374 276C374 268 371.5 253.5 359.5 253.5ZM359.5 253.5C359.5 257.529 359.5 260.279 359.5 263.5M359.5 263.5L354 268M359.5 263.5L365.5 268" stroke="#121212" stroke-width="6" stroke-linecap="round" stroke-linejoin="round"/><path d="M167.5 276C167.5 263.5 165.5 253.5 153.5 253.5C141.5 253.5 139 268 139 276C139 289 155 296.5 155 296.5C155 296.5 167.5 288.5 167.5 276Z" fill="#3EFF1F"/><path d="M153.5 238C153.5 238 153.5 247.447 153.5 253.5M153.5 276.5L159 281.5M153.5 276.5L148 281.5M153.5 276.5C153.5 276.5 153.5 270.114 153.5 263.5M153.5 253.5C165.5 253.5 167.5 263.5 167.5 276C167.5 288.5 155 296.5 155 296.5C155 296.5 139 289 139 276C139 268 141.5 253.5 153.5 253.5ZM153.5 253.5C153.5 257.529 153.5 260.279 153.5 263.5M153.5 263.5L159 268M153.5 263.5L147.5 268" stroke="#121212" stroke-width="6" stroke-linecap="round" stroke-linejoin="round"/><path d="M190 175H238C242.418 175 246 178.582 246 183V223C246 227.418 242.418 231 238 231H198C193.582 231 190 227.418 190 223V175Z" fill="#FF00B1" fill-opacity="0.6"/><path d="M190 175H238C242.418 175 246 178.582 246 183V223C246 227.418 242.418 231 238 231H198C193.582 231 190 227.418 190 223V175ZM190 175H166" stroke="#121212" stroke-width="6" stroke-linecap="round" stroke-linejoin="round"/><path d="M247 184H266" stroke="#121212" stroke-width="6" stroke-linecap="round" stroke-linejoin="round"/><path d="M266 183C266 178.582 269.582 175 274 175H322V223C322 227.418 318.418 231 314 231H274C269.582 231 266 227.418 266 223V183Z" fill="#FF00B1" fill-opacity="0.6"/><path d="M322 175H274C269.582 175 266 178.582 266 183V223C266 227.418 269.582 231 274 231H314C318.418 231 322 227.418 322 223V175ZM322 175H346" stroke="#121212" stroke-width="6" stroke-linecap="round" stroke-linejoin="round"/><path d="M233.5 294.022C237.333 291.848 247.3 287.5 256.5 287.5C265.7 287.5 274.667 291.202 278 293.053C276.667 297.869 270.7 307.6 257.5 308C244.3 308.4 236 298.848 233.5 294.022Z" fill="#FF3EA5"/><path d="M227 292C228.376 292.694 230.635 293.396 233.5 294.022M285 289.5C283.026 290.948 280.65 292.12 278 293.053M233.5 294.022C237.333 291.848 247.3 287.5 256.5 287.5C265.7 287.5 274.667 291.202 278 293.053M233.5 294.022C244.58 296.443 264.731 297.729 278 293.053M233.5 294.022C236 298.848 244.3 308.4 257.5 308C270.7 307.6 276.667 297.869 278 293.053" stroke="#121212" stroke-width="6" stroke-linecap="round" stroke-linejoin="round"/><path d="M157.926 197C141.951 197 129 209.951 129 225.926V246C129 250.971 133.029 255 138 255C142.971 255 147 250.971 147 246V229H152C158.075 229 163 224.075 163 218V202.074C163 199.272 160.728 197 157.926 197Z" fill="white" stroke="#121212" stroke-width="6" stroke-linecap="round" stroke-linejoin="round"/><path d="M354.074 197C370.049 197 383 209.951 383 225.926V246C383 250.971 378.971 255 374 255C369.029 255 365 250.971 365 246V229H360C353.925 229 349 224.075 349 218V202.074C349 199.272 351.272 197 354.074 197Z" fill="white" stroke="#121212" stroke-width="6" stroke-linecap="round" stroke-linejoin="round"/><g clip-path="url(#clip0_3720_1002)"><path d="M49.3417 440.609C58.0999 414.553 82.518 397 110.006 397H184C184 397 193 456 256 456C319 456 328 397 328 397H401.994C429.482 397 453.9 414.553 462.658 440.609L488 516H24L49.3417 440.609Z" fill="#15F5BA" stroke="#121212" stroke-width="6" stroke-linecap="round" stroke-linejoin="round"/><path d="M97.1075 500.155C90.8515 498.75 79.4263 499.168 83.7728 512.079C89.2059 528.218 105.611 512.348 104.518 500.727" stroke="#121212" stroke-width="6" stroke-linecap="round" stroke-linejoin="round"/><path d="M256 453C193 453 184 397 184 397H165C165 397 184 470 256 470C328 470 347 397 347 397H328C328 397 319 453 256 453Z" fill="#15F5BA" stroke="#121212" stroke-width="6" stroke-linecap="round" stroke-linejoin="round"/><path d="M256 455L256 469" stroke="#121212" stroke-width="6" stroke-linecap="round" stroke-linejoin="round"/><path d="M189.5 414L176.5 422" stroke="#121212" stroke-width="6" stroke-linecap="round" stroke-linejoin="round"/><path d="M322.5 414L335.5 422" stroke="#121212" stroke-width="6" stroke-linecap="round" stroke-linejoin="round"/><path d="M207 436.5L197.5 447" stroke="#121212" stroke-width="6" stroke-linecap="round" stroke-linejoin="round"/><path d="M306 435L316 445" stroke="#121212" stroke-width="6" stroke-linecap="round" stroke-linejoin="round"/><path d="M230.5 449.5L226 463" stroke="#121212" stroke-width="6" stroke-linecap="round" stroke-linejoin="round"/><path d="M283.5 449L289 463" stroke="#121212" stroke-width="6" stroke-linecap="round" stroke-linejoin="round"/><path d="M101 425.08C101 425.08 115.514 423.922 118.26 430.425C120.457 435.627 111.898 439.426 114.562 444.405C117.637 450.154 131 447.283 131 447.283" stroke="#121212" stroke-width="6" stroke-linecap="round" stroke-linejoin="round"/><path d="M383.207 411.056C383.207 411.056 394.289 420.501 391.632 427.041C389.507 432.273 380.769 428.907 379.132 434.311C377.241 440.551 388.72 447.97 388.72 447.97" stroke="#121212" stroke-width="6" stroke-linecap="round" stroke-linejoin="round"/><path d="M169.207 463.056C169.207 463.056 180.289 472.501 177.632 479.041C175.507 484.273 166.769 480.907 165.132 486.311C163.241 492.551 174.72 499.97 174.72 499.97" stroke="#121212" stroke-width="6" stroke-linecap="round" stroke-linejoin="round"/><path d="M394.021 487.842C394.021 487.842 407.741 482.967 412.076 488.538C415.544 492.994 408.261 498.878 412.122 502.998C416.58 507.756 428.745 501.524 428.745 501.524" stroke="#121212" stroke-width="6" stroke-linecap="round" stroke-linejoin="round"/><path d="M274.021 496.842C274.021 496.842 287.741 491.967 292.076 497.538C295.544 501.994 288.261 507.878 292.122 511.998C296.58 516.756 308.745 510.524 308.745 510.524" stroke="#121212" stroke-width="6" stroke-linecap="round" stroke-linejoin="round"/><path d="M68.6099 490.78C68.6099 490.78 74.8643 477.631 81.8692 478.505C87.4729 479.204 86.4829 488.515 92.1268 488.698C98.6432 488.909 102.839 475.901 102.839 475.901" stroke="#121212" stroke-width="6" stroke-linecap="round" stroke-linejoin="round"/><path d="M135.5 421.5C132.5 427.167 129.9 438.3 143.5 437.5C160.5 436.5 149.5 416.5 138 414.5" stroke="#121212" stroke-width="6" stroke-linecap="round" stroke-linejoin="round"/><path d="M191.399 483C188.399 488.667 185.799 499.8 199.399 499C216.399 498 205.399 478 193.899 476" stroke="#121212" stroke-width="6" stroke-linecap="round" stroke-linejoin="round"/><path d="M311.399 483C308.399 488.667 305.799 499.8 319.399 499C336.399 498 325.399 478 313.899 476" stroke="#121212" stroke-width="6" stroke-linecap="round" stroke-linejoin="round"/><path d="M403.138 431.238C400.138 436.905 397.538 448.038 411.138 447.238C428.138 446.238 417.138 426.238 405.638 424.238" stroke="#121212" stroke-width="6" stroke-linecap="round" stroke-linejoin="round"/><path d="M431.399 476C428.399 481.667 425.799 492.8 439.399 492C456.399 491 445.399 471 433.899 469" stroke="#121212" stroke-width="6" stroke-linecap="round" stroke-linejoin="round"/></g><defs><clipPath id="clip0_3720_1002"><rect width="512" height="512" fill="white"/></clipPath></defs><path d="M303.956 357.711C284.907 363.727 271.153 367.802 256.552 368.387C242.025 368.97 226.439 366.098 203.901 357.758C200.38 356.456 196.5 357.249 193.237 358.873C189.922 360.522 186.823 363.219 184.623 366.458C182.424 369.696 180.994 373.68 181.403 377.86C181.654 380.417 182.578 382.895 184.237 385.181C180.268 386.32 177.182 388.19 175.097 390.869C172.05 394.785 171.673 399.738 172.741 404.78C174.843 414.694 182.904 426.829 192.759 438.336C202.716 449.964 214.898 461.398 225.837 469.944C231.305 474.215 236.518 477.809 241.031 480.351C243.287 481.621 245.416 482.656 247.349 483.38C249.245 484.091 251.135 484.572 252.859 484.572C254.767 484.572 256.863 484.031 258.983 483.218C261.14 482.392 263.51 481.21 266.018 479.76C271.036 476.859 276.805 472.771 282.83 467.954C294.883 458.316 308.189 445.576 318.886 433.086C324.235 426.84 328.971 420.611 332.579 414.824C336.154 409.091 338.763 403.571 339.622 398.781C340.496 393.913 339.617 389.135 335.307 386.21C332.553 384.34 328.761 383.521 324.048 383.576C325.929 380.313 327.014 377.222 327.374 374.327C327.936 369.812 326.705 365.94 324.284 362.988C319.585 357.257 310.932 355.508 303.956 357.711Z" fill="#FF00B1" stroke="#121212" stroke-width="6" stroke-linecap="round" stroke-linejoin="round"/><path d="M214.066 429.981C223.667 416.661 214.158 406.313 203.111 408.912C186.111 412.912 200.413 444.931 200.413 444.931C200.413 444.931 209.157 436.793 214.066 429.981Z" fill="white" stroke="#121212" stroke-width="6" stroke-linecap="round" stroke-linejoin="round"/><path d="M320.066 427.981C329.667 414.661 320.158 404.313 309.111 406.912C292.111 410.912 306.413 442.931 306.413 442.931C306.413 442.931 315.157 434.793 320.066 427.981Z" fill="white" stroke="#121212" stroke-width="6" stroke-linecap="round" stroke-linejoin="round"/><path d="M272 474.5C285.662 465.392 269.636 454.371 258.589 456.97C241.589 460.97 257.5 483 257.5 483C257.5 483 267.5 477.5 272 474.5Z" fill="white" stroke="#121212" stroke-width="6" stroke-linecap="round" stroke-linejoin="round"/><path d="M269.453 405.4C262.718 390.426 249.002 393.486 245.729 404.353C240.694 421.075 275.574 424.699 275.574 424.699C275.574 424.699 272.898 413.058 269.453 405.4Z" fill="white" stroke="#121212" stroke-width="6" stroke-linecap="round" stroke-linejoin="round"/><path d="M231.358 379.751C231.358 379.751 227.729 372.21 224.284 364.552L208.5 359.5C203.464 376.222 231.358 379.751 231.358 379.751Z" fill="white" stroke="#121212" stroke-width="6" stroke-linecap="round" stroke-linejoin="round"/><path d="M209.5 393.5C222 408.5 258.5 429.5 304.5 393.5" stroke="#121212" stroke-width="6" stroke-linecap="round" stroke-linejoin="round"/></svg>