<svg xmlns="http://www.w3.org/2000/svg" width="512" height="512" fill="none" viewBox="0 0 512 512"><rect width="512" height="512" fill="#E01FFF"/><g clip-path="url(#clip0_3789_8)"><path d="M134 175C133.108 175 132.261 175.397 131.691 176.084C131.122 176.771 130.887 177.676 131.051 178.553L143.051 242.553C143.317 243.972 144.556 245 146 245H167C168.657 245 170 243.657 170 242V178C170 176.343 168.657 175 167 175H134Z" fill="#FC6736" stroke="#121212" stroke-width="6" stroke-linecap="round" stroke-linejoin="round"/><path d="M378 175C378.892 175 379.739 175.397 380.309 176.084C380.878 176.771 381.113 177.676 380.949 178.553L368.949 242.553C368.683 243.972 367.444 245 366 245H345C343.343 245 342 243.657 342 242V178C342 176.343 343.343 175 345 175H378Z" fill="#FC6736" stroke="#121212" stroke-width="6" stroke-linecap="round" stroke-linejoin="round"/><mask id="path-3-outside-1_3789_8" maskUnits="userSpaceOnUse" x="26" y="340" width="460" height="178" fill="black"><rect fill="white" x="26" y="340" width="460" height="178"/><path fill-rule="evenodd" clip-rule="evenodd" d="M305 346H207V400H100.206C82.7799 400 74.0666 400 67.6505 404.84C61.2345 409.679 58.8408 418.057 54.0533 434.813L32 512H480L457.947 434.813C453.159 418.057 450.766 409.679 444.349 404.84C437.933 400 429.22 400 411.794 400H305V346Z"/></mask><path fill-rule="evenodd" clip-rule="evenodd" d="M305 346H207V400H100.206C82.7799 400 74.0666 400 67.6505 404.84C61.2345 409.679 58.8408 418.057 54.0533 434.813L32 512H480L457.947 434.813C453.159 418.057 450.766 409.679 444.349 404.84C437.933 400 429.22 400 411.794 400H305V346Z" fill="#FC6736"/><path d="M207 346V340C203.686 340 201 342.686 201 346H207ZM305 346H311C311 342.686 308.314 340 305 340V346ZM207 400V406C210.314 406 213 403.314 213 400H207ZM67.6505 404.84L71.2637 409.63L71.2637 409.63L67.6505 404.84ZM54.0533 434.813L48.2842 433.165V433.165L54.0533 434.813ZM32 512L26.2309 510.352C25.7136 512.162 26.0761 514.11 27.2099 515.613C28.3437 517.116 30.1173 518 32 518V512ZM480 512V518C481.883 518 483.656 517.116 484.79 515.613C485.924 514.11 486.286 512.162 485.769 510.352L480 512ZM457.947 434.813L452.178 436.462L457.947 434.813ZM444.349 404.84L440.736 409.63L444.349 404.84ZM305 400H299C299 403.314 301.686 406 305 406V400ZM207 352H305V340H207V352ZM213 400V346H201V400H213ZM100.206 406H207V394H100.206V406ZM71.2637 409.63C73.3094 408.087 75.927 407.1 80.4984 406.564C85.2271 406.01 91.3505 406 100.206 406V394C91.6359 394 84.6893 393.99 79.1007 394.646C73.3548 395.32 68.4078 396.753 64.0374 400.05L71.2637 409.63ZM59.8225 436.462C62.2554 427.946 63.9468 422.061 65.7791 417.667C67.5504 413.419 69.2181 411.173 71.2637 409.63L64.0374 400.05C59.667 403.346 56.9297 407.709 54.7033 413.049C52.5379 418.242 50.6387 424.924 48.2842 433.165L59.8225 436.462ZM37.7691 513.648L59.8225 436.462L48.2842 433.165L26.2309 510.352L37.7691 513.648ZM480 506H32V518H480V506ZM452.178 436.462L474.231 513.648L485.769 510.352L463.716 433.165L452.178 436.462ZM440.736 409.63C442.782 411.173 444.45 413.419 446.221 417.667C448.053 422.061 449.745 427.946 452.178 436.462L463.716 433.165C461.361 424.924 459.462 418.242 457.297 413.049C455.07 407.709 452.333 403.346 447.963 400.05L440.736 409.63ZM411.794 406C420.65 406 426.773 406.01 431.502 406.564C436.073 407.1 438.691 408.087 440.736 409.63L447.963 400.05C443.592 396.753 438.645 395.32 432.899 394.646C427.311 393.99 420.364 394 411.794 394V406ZM305 406H411.794V394H305V406ZM299 346V400H311V346H299Z" fill="#121212" mask="url(#path-3-outside-1_3789_8)"/><path d="M166 103C164.343 103 163 104.343 163 106V346C163 347.657 164.343 349 166 349H346C347.657 349 349 347.657 349 346V106C349 104.343 347.657 103 346 103H166Z" fill="#FC6736" stroke="#121212" stroke-width="6" stroke-linecap="round" stroke-linejoin="round"/><path d="M256 218L263.515 248.06C264.777 253.109 260.958 258 255.754 258H246" stroke="#121212" stroke-width="6" stroke-linecap="round" stroke-linejoin="round"/></g><defs><clipPath id="clip0_3789_8"><rect width="512" height="512" fill="white"/></clipPath></defs><g clip-path="url(#clip0_1662_3825)"><path d="M161.8 397.6C161.281 397.211 160.649 397 160 397H82.1033C70.0483 397 59.4539 404.991 56.1421 416.583L29.1154 511.176C28.8568 512.081 29.0381 513.055 29.605 513.807C30.1718 514.558 31.0586 515 32 515H480C480.941 515 481.828 514.558 482.395 513.807C482.962 513.055 483.143 512.081 482.885 511.176L455.858 416.583C452.546 404.991 441.952 397 429.897 397H352C351.351 397 350.719 397.211 350.2 397.6L263.8 462.4C259.178 465.867 252.822 465.867 248.2 462.4L161.8 397.6Z" fill="#1FE4FF" stroke="#121212" stroke-width="6" stroke-linecap="round" stroke-linejoin="round"/></g><defs><clipPath id="clip0_1662_3825"><rect width="512" height="512" fill="white"/></clipPath></defs><rect x="213" y="190" width="18" height="18" rx="9" fill="#FF2820" stroke="#121212" stroke-width="6" stroke-linecap="round" stroke-linejoin="round"/><rect x="281" y="190" width="18" height="18" rx="9" fill="#FF2820" stroke="#121212" stroke-width="6" stroke-linecap="round" stroke-linejoin="round"/><path d="M208.144 160C208.144 160 227.288 185.097 235.856 176C238.269 173.439 240 168 240 168" stroke="#121212" stroke-width="6" stroke-linecap="round" stroke-linejoin="round"/><path d="M308.894 159.794C308.894 159.794 289.749 184.891 281.181 175.794C278.768 173.233 277.037 167.794 277.037 167.794" stroke="#121212" stroke-width="6" stroke-linecap="round" stroke-linejoin="round"/><path d="M160 56C160 52.6863 162.686 50 166 50H312C334.091 50 352 67.9086 352 90V150L160 150V56Z" fill="#121212"/><path d="M334 129H350C363.255 129 374 139.745 374 153V172H334V129Z" fill="#121212"/><path d="M178 129H162C148.745 129 138 139.745 138 153V172H178V129Z" fill="#121212"/><path d="M160 150H178V245C178 249.971 173.971 254 169 254V254C164.029 254 160 249.971 160 245V150Z" fill="#121212"/><path d="M334 150H352V245C352 249.971 347.971 254 343 254V254C338.029 254 334 249.971 334 245V150Z" fill="#121212"/><path d="M160 266L191.569 279.726C200.332 283.536 206 292.18 206 301.736V352H176C167.163 352 160 344.837 160 336V266Z" fill="#121212"/><path d="M352 266L320.431 279.726C311.668 283.536 306 292.18 306 301.736V352H336C344.837 352 352 344.837 352 336V266Z" fill="#121212"/><rect x="186" y="322" width="140" height="30" fill="#121212"/><path d="M230.711 302H280" stroke="#121212" stroke-width="6" stroke-linecap="round" stroke-linejoin="round"/><path d="M280 302.564L357.062 321.574L368.325 299L395 311.475L386.701 328.109L379.113 343.318C374.912 351.739 364.386 354.733 356.382 349.785L280 302.564Z" fill="#874C62" stroke="#121212" stroke-width="6" stroke-linecap="round" stroke-linejoin="round"/><path d="M368.325 299L395 311.475L388.66 324L362.5 311L368.325 299Z" fill="#FFD600" stroke="#121212" stroke-width="6" stroke-linecap="round" stroke-linejoin="round"/><path d="M190 175H238C242.418 175 246 178.582 246 183V223C246 227.418 242.418 231 238 231H198C193.582 231 190 227.418 190 223V175Z" fill="#FF00B1" fill-opacity="0.6"/><path d="M190 175H238C242.418 175 246 178.582 246 183V223C246 227.418 242.418 231 238 231H198C193.582 231 190 227.418 190 223V175ZM190 175H166" stroke="#121212" stroke-width="6" stroke-linecap="round" stroke-linejoin="round"/><path d="M247 184H266" stroke="#121212" stroke-width="6" stroke-linecap="round" stroke-linejoin="round"/><path d="M266 183C266 178.582 269.582 175 274 175H322V223C322 227.418 318.418 231 314 231H274C269.582 231 266 227.418 266 223V183Z" fill="#FF00B1" fill-opacity="0.6"/><path d="M322 175H274C269.582 175 266 178.582 266 183V223C266 227.418 269.582 231 274 231H314C318.418 231 322 227.418 322 223V175ZM322 175H346" stroke="#121212" stroke-width="6" stroke-linecap="round" stroke-linejoin="round"/></svg>